<svg id="my-svg" width="100%" xmlns="http://www.w3.org/2000/svg" xmlns:xlink="http://www.w3.org/1999/xlink" class="flowchart" style="max-width: 1406.64px; background-color: transparent;" viewBox="0 0 1406.640625 2370.296875" role="graphics-document document" aria-roledescription="flowchart-v2"><style>#my-svg{font-family:"trebuchet ms",verdana,arial,sans-serif;font-size:16px;fill:#333;}@keyframes edge-animation-frame{from{stroke-dashoffset:0;}}@keyframes dash{to{stroke-dashoffset:0;}}#my-svg .edge-animation-slow{stroke-dasharray:9,5!important;stroke-dashoffset:900;animation:dash 50s linear infinite;stroke-linecap:round;}#my-svg .edge-animation-fast{stroke-dasharray:9,5!important;stroke-dashoffset:900;animation:dash 20s linear infinite;stroke-linecap:round;}#my-svg .error-icon{fill:#552222;}#my-svg .error-text{fill:#552222;stroke:#552222;}#my-svg .edge-thickness-normal{stroke-width:1px;}#my-svg .edge-thickness-thick{stroke-width:3.5px;}#my-svg .edge-pattern-solid{stroke-dasharray:0;}#my-svg .edge-thickness-invisible{stroke-width:0;fill:none;}#my-svg .edge-pattern-dashed{stroke-dasharray:3;}#my-svg .edge-pattern-dotted{stroke-dasharray:2;}#my-svg .marker{fill:#333333;stroke:#333333;}#my-svg .marker.cross{stroke:#333333;}#my-svg svg{font-family:"trebuchet ms",verdana,arial,sans-serif;font-size:16px;}#my-svg p{margin:0;}#my-svg .label{font-family:"trebuchet ms",verdana,arial,sans-serif;color:#333;}#my-svg .cluster-label text{fill:#333;}#my-svg .cluster-label span{color:#333;}#my-svg .cluster-label span p{background-color:transparent;}#my-svg .label text,#my-svg span{fill:#333;color:#333;}#my-svg .node rect,#my-svg .node circle,#my-svg .node ellipse,#my-svg .node polygon,#my-svg .node path{fill:#ECECFF;stroke:#9370DB;stroke-width:1px;}#my-svg .rough-node .label text,#my-svg .node .label text,#my-svg .image-shape .label,#my-svg .icon-shape .label{text-anchor:middle;}#my-svg .node .katex path{fill:#000;stroke:#000;stroke-width:1px;}#my-svg .rough-node .label,#my-svg .node .label,#my-svg .image-shape .label,#my-svg .icon-shape .label{text-align:center;}#my-svg .node.clickable{cursor:pointer;}#my-svg .root .anchor path{fill:#333333!important;stroke-width:0;stroke:#333333;}#my-svg .arrowheadPath{fill:#333333;}#my-svg .edgePath .path{stroke:#333333;stroke-width:1px;}#my-svg .flowchart-link{stroke:#333333;fill:none;}#my-svg .edgeLabel{background-color:rgba(232,232,232, 0.8);text-align:center;}#my-svg .edgeLabel p{background-color:rgba(232,232,232, 0.8);}#my-svg .edgeLabel rect{opacity:0.5;background-color:rgba(232,232,232, 0.8);fill:rgba(232,232,232, 0.8);}#my-svg .labelBkg{background-color:rgba(232, 232, 232, 0.5);}#my-svg .cluster rect{fill:#ffffde;stroke:#aaaa33;stroke-width:1px;}#my-svg .cluster text{fill:#333;}#my-svg .cluster span{color:#333;}#my-svg div.mermaidTooltip{position:absolute;text-align:center;max-width:200px;padding:2px;font-family:"trebuchet ms",verdana,arial,sans-serif;font-size:12px;background:hsl(80, 100%, 96.2745098039%);border:1px solid #aaaa33;border-radius:2px;pointer-events:none;z-index:100;}#my-svg .flowchartTitleText{text-anchor:middle;font-size:18px;fill:#333;}#my-svg rect.text{fill:none;stroke-width:0;}#my-svg .icon-shape,#my-svg .image-shape{background-color:rgba(232,232,232, 0.8);text-align:center;}#my-svg .icon-shape p,#my-svg .image-shape p{background-color:rgba(232,232,232, 0.8);padding:2px;}#my-svg .icon-shape .label rect,#my-svg .image-shape .label rect{opacity:0.5;background-color:rgba(232,232,232, 0.8);fill:rgba(232,232,232, 0.8);}#my-svg .label-icon{display:inline-block;height:1em;overflow:visible;vertical-align:-0.125em;}#my-svg .node .label-icon path{fill:currentColor;stroke:revert;stroke-width:revert;}#my-svg .node .neo-node{stroke:#9370DB;}#my-svg [data-look="neo"].node rect,#my-svg [data-look="neo"].cluster rect,#my-svg [data-look="neo"].node polygon{stroke:#9370DB;filter:drop-shadow(1px 2px 2px rgba(185, 185, 185, 1));}#my-svg [data-look="neo"].node path{stroke:#9370DB;stroke-width:1px;}#my-svg [data-look="neo"].node .outer-path{filter:drop-shadow(1px 2px 2px rgba(185, 185, 185, 1));}#my-svg [data-look="neo"].node .neo-line path{stroke:#9370DB;filter:none;}#my-svg [data-look="neo"].node circle{stroke:#9370DB;filter:drop-shadow(1px 2px 2px rgba(185, 185, 185, 1));}#my-svg [data-look="neo"].node circle .state-start{fill:#000000;}#my-svg [data-look="neo"].icon-shape .icon{fill:#9370DB;filter:drop-shadow(1px 2px 2px rgba(185, 185, 185, 1));}#my-svg [data-look="neo"].icon-shape .icon-neo path{stroke:#9370DB;filter:drop-shadow(1px 2px 2px rgba(185, 185, 185, 1));}#my-svg :root{--mermaid-font-family:"trebuchet ms",verdana,arial,sans-serif;}</style><g><marker id="my-svg_flowchart-v2-pointEnd" class="marker flowchart-v2" viewBox="0 0 10 10" refX="5" refY="5" markerUnits="userSpaceOnUse" markerWidth="8" markerHeight="8" orient="auto"><path d="M 0 0 L 10 5 L 0 10 z" class="arrowMarkerPath" style="stroke-width: 1; stroke-dasharray: 1, 0;"/></marker><marker id="my-svg_flowchart-v2-pointStart" class="marker flowchart-v2" viewBox="0 0 10 10" refX="4.5" refY="5" markerUnits="userSpaceOnUse" markerWidth="8" markerHeight="8" orient="auto"><path d="M 0 5 L 10 10 L 10 0 z" class="arrowMarkerPath" style="stroke-width: 1; stroke-dasharray: 1, 0;"/></marker><marker id="my-svg_flowchart-v2-pointEnd-margin" class="marker flowchart-v2" viewBox="0 0 11.5 14" refX="11.5" refY="7" markerUnits="userSpaceOnUse" markerWidth="10.5" markerHeight="14" orient="auto"><path d="M 0 0 L 11.5 7 L 0 14 z" class="arrowMarkerPath" style="stroke-width: 0; stroke-dasharray: 1, 0;"/></marker><marker id="my-svg_flowchart-v2-pointStart-margin" class="marker flowchart-v2" viewBox="0 0 11.5 14" refX="1" refY="7" markerUnits="userSpaceOnUse" markerWidth="11.5" markerHeight="14" orient="auto"><polygon points="0,7 11.5,14 11.5,0" class="arrowMarkerPath" style="stroke-width: 0; stroke-dasharray: 1, 0;"/></marker><marker id="my-svg_flowchart-v2-circleEnd" class="marker flowchart-v2" viewBox="0 0 10 10" refX="11" refY="5" markerUnits="userSpaceOnUse" markerWidth="11" markerHeight="11" orient="auto"><circle cx="5" cy="5" r="5" class="arrowMarkerPath" style="stroke-width: 1; stroke-dasharray: 1, 0;"/></marker><marker id="my-svg_flowchart-v2-circleStart" class="marker flowchart-v2" viewBox="0 0 10 10" refX="-1" refY="5" markerUnits="userSpaceOnUse" markerWidth="11" markerHeight="11" orient="auto"><circle cx="5" cy="5" r="5" class="arrowMarkerPath" style="stroke-width: 1; stroke-dasharray: 1, 0;"/></marker><marker id="my-svg_flowchart-v2-circleEnd-margin" class="marker flowchart-v2" viewBox="0 0 10 10" refY="5" refX="12.25" markerUnits="userSpaceOnUse" markerWidth="14" markerHeight="14" orient="auto"><circle cx="5" cy="5" r="5" class="arrowMarkerPath" style="stroke-width: 0; stroke-dasharray: 1, 0;"/></marker><marker id="my-svg_flowchart-v2-circleStart-margin" class="marker flowchart-v2" viewBox="0 0 10 10" refX="-2" refY="5" markerUnits="userSpaceOnUse" markerWidth="14" markerHeight="14" orient="auto"><circle cx="5" cy="5" r="5" class="arrowMarkerPath" style="stroke-width: 0; stroke-dasharray: 1, 0;"/></marker><marker id="my-svg_flowchart-v2-crossEnd" class="marker cross flowchart-v2" viewBox="0 0 11 11" refX="12" refY="5.2" markerUnits="userSpaceOnUse" markerWidth="11" markerHeight="11" orient="auto"><path d="M 1,1 l 9,9 M 10,1 l -9,9" class="arrowMarkerPath" style="stroke-width: 2; stroke-dasharray: 1, 0;"/></marker><marker id="my-svg_flowchart-v2-crossStart" class="marker cross flowchart-v2" viewBox="0 0 11 11" refX="-1" refY="5.2" markerUnits="userSpaceOnUse" markerWidth="11" markerHeight="11" orient="auto"><path d="M 1,1 l 9,9 M 10,1 l -9,9" class="arrowMarkerPath" style="stroke-width: 2; stroke-dasharray: 1, 0;"/></marker><marker id="my-svg_flowchart-v2-crossEnd-margin" class="marker cross flowchart-v2" viewBox="0 0 15 15" refX="17.7" refY="7.5" markerUnits="userSpaceOnUse" markerWidth="12" markerHeight="12" orient="auto"><path d="M 1,1 L 14,14 M 1,14 L 14,1" class="arrowMarkerPath" style="stroke-width: 2.5;"/></marker><marker id="my-svg_flowchart-v2-crossStart-margin" class="marker cross flowchart-v2" viewBox="0 0 15 15" refX="-3.5" refY="7.5" markerUnits="userSpaceOnUse" markerWidth="12" markerHeight="12" orient="auto"><path d="M 1,1 L 14,14 M 1,14 L 14,1" class="arrowMarkerPath" style="stroke-width: 2.5; stroke-dasharray: 1, 0;"/></marker><g class="root"><g class="clusters"><g class="cluster" id="my-svg-Behaviors" data-look="classic"><rect style="" x="8" y="2210.296875" width="1360.2109375" height="152"/><g class="cluster-label" transform="translate(652.52734375, 2210.296875)"><foreignObject width="71.15625" height="24"><div xmlns="http://www.w3.org/1999/xhtml" style="display: table-cell; white-space: nowrap; line-height: 1.5;"><span class="nodeLabel"><p>Behaviors</p></span></div></foreignObject></g></g></g><g class="edgePaths"><path d="M1103.5,302.727L1103.417,349.348C1103.333,395.969,1103.167,489.211,1103.083,539.332C1103,589.453,1103,596.453,1103,599.953L1103,603.453" id="my-svg-L_START_CHECK_SCHED_0" class="edge-thickness-normal edge-pattern-solid edge-thickness-normal edge-pattern-solid flowchart-link" style=";" data-edge="true" data-et="edge" data-id="L_START_CHECK_SCHED_0" data-points="W3sieCI6MTEwMy41LCJ5IjozMDIuNzI2NTYyNX0seyJ4IjoxMTAzLCJ5Ijo1ODIuNDUzMTI1fSx7IngiOjExMDMsInkiOjYwNy40NTMxMjV9XQ==" data-look="classic" marker-end="url(#my-svg_flowchart-v2-pointEnd)"/><path d="M1166.426,787.449L1184.64,804.187C1202.854,820.924,1239.283,854.4,1257.497,883.804C1275.711,913.208,1275.711,938.542,1275.711,961.875C1275.711,985.208,1275.711,1006.542,1275.711,1035.875C1275.711,1065.208,1275.711,1102.542,1275.711,1139.875C1275.711,1177.208,1275.711,1214.542,1275.711,1243.875C1275.711,1273.208,1275.711,1294.542,1275.711,1317.875C1275.711,1341.208,1275.711,1366.542,1275.711,1395.875C1275.711,1425.208,1275.711,1458.542,1275.711,1489.875C1275.711,1521.208,1275.711,1550.542,1275.711,1592.327C1275.711,1634.112,1275.711,1688.349,1275.711,1744.586C1275.711,1800.823,1275.711,1859.06,1275.711,1898.845C1275.711,1938.63,1275.711,1959.964,1275.711,1981.297C1275.711,2002.63,1275.711,2023.964,1275.711,2042.13C1275.711,2060.297,1275.711,2075.297,1275.711,2082.797L1275.711,2090.297" id="my-svg-L_CHECK_SCHED_NULL_RETURN_0" class="edge-thickness-normal edge-pattern-solid edge-thickness-normal edge-pattern-solid flowchart-link" style=";" data-edge="true" data-et="edge" data-id="L_CHECK_SCHED_NULL_RETURN_0" data-points="W3sieCI6MTE2Ni40MjYxMzk2MjgzMTc3LCJ5Ijo3ODcuNDQ4ODYwMzcxNjgyMX0seyJ4IjoxMjc1LjcxMDkzNzUsInkiOjg4Ny44NzV9LHsieCI6MTI3NS43MTA5Mzc1LCJ5Ijo5NjMuODc1fSx7IngiOjEyNzUuNzEwOTM3NSwieSI6MTAyNy44NzV9LHsieCI6MTI3NS43MTA5Mzc1LCJ5IjoxMTM5Ljg3NX0seyJ4IjoxMjc1LjcxMDkzNzUsInkiOjEyNTEuODc1fSx7IngiOjEyNzUuNzEwOTM3NSwieSI6MTMxNS44NzV9LHsieCI6MTI3NS43MTA5Mzc1LCJ5IjoxMzkxLjg3NX0seyJ4IjoxMjc1LjcxMDkzNzUsInkiOjE0OTEuODc1fSx7IngiOjEyNzUuNzEwOTM3NSwieSI6MTU3OS44NzV9LHsieCI6MTI3NS43MTA5Mzc1LCJ5IjoxNzQyLjU4NTkzNzV9LHsieCI6MTI3NS43MTA5Mzc1LCJ5IjoxOTE3LjI5Njg3NX0seyJ4IjoxMjc1LjcxMDkzNzUsInkiOjE5ODEuMjk2ODc1fSx7IngiOjEyNzUuNzEwOTM3NSwieSI6MjA0NS4yOTY4NzV9LHsieCI6MTI3NS43MTA5Mzc1LCJ5IjoyMDk0LjI5Njg3NX1d" data-look="classic" marker-end="url(#my-svg_flowchart-v2-pointEnd)"/><path d="M1050.783,798.658L1039.61,813.527C1028.437,828.397,1006.092,858.136,994.919,878.505C983.746,898.875,983.746,909.875,983.746,915.375L983.746,920.875" id="my-svg-L_CHECK_SCHED_GET_TZ_0" class="edge-thickness-normal edge-pattern-solid edge-thickness-normal edge-pattern-solid flowchart-link" style=";" data-edge="true" data-et="edge" data-id="L_CHECK_SCHED_GET_TZ_0" data-points="W3sieCI6MTA1MC43ODI5NDc4OTIyMjAxLCJ5Ijo3OTguNjU3OTQ3ODkyMjIwMn0seyJ4Ijo5ODMuNzQ2MDkzNzUsInkiOjg4Ny44NzV9LHsieCI6OTgzLjc0NjA5Mzc1LCJ5Ijo5MjQuODc1fV0=" data-look="classic" marker-end="url(#my-svg_flowchart-v2-pointEnd)"/><path d="M983.746,1002.875L983.746,1007.042C983.746,1011.208,983.746,1019.542,983.746,1027.208C983.746,1034.875,983.746,1041.875,983.746,1045.375L983.746,1048.875" id="my-svg-L_GET_TZ_COMPUTE_NOW_0" class="edge-thickness-normal edge-pattern-solid edge-thickness-normal edge-pattern-solid flowchart-link" style=";" data-edge="true" data-et="edge" data-id="L_GET_TZ_COMPUTE_NOW_0" data-points="W3sieCI6OTgzLjc0NjA5Mzc1LCJ5IjoxMDAyLjg3NX0seyJ4Ijo5ODMuNzQ2MDkzNzUsInkiOjEwMjcuODc1fSx7IngiOjk4My43NDYwOTM3NSwieSI6MTA1Mi44NzV9XQ==" data-look="classic" marker-end="url(#my-svg_flowchart-v2-pointEnd)"/><path d="M983.746,1226.875L983.746,1231.042C983.746,1235.208,983.746,1243.542,983.746,1251.208C983.746,1258.875,983.746,1265.875,983.746,1269.375L983.746,1272.875" id="my-svg-L_COMPUTE_NOW_FOR_EACH_0" class="edge-thickness-normal edge-pattern-solid edge-thickness-normal edge-pattern-solid flowchart-link" style=";" data-edge="true" data-et="edge" data-id="L_COMPUTE_NOW_FOR_EACH_0" data-points="W3sieCI6OTgzLjc0NjA5Mzc1LCJ5IjoxMjI2Ljg3NX0seyJ4Ijo5ODMuNzQ2MDkzNzUsInkiOjEyNTEuODc1fSx7IngiOjk4My43NDYwOTM3NSwieSI6MTI3Ni44NzV9XQ==" data-look="classic" marker-end="url(#my-svg_flowchart-v2-pointEnd)"/><path d="M983.746,1354.875L983.746,1361.042C983.746,1367.208,983.746,1379.542,983.746,1391.208C983.746,1402.875,983.746,1413.875,983.746,1419.375L983.746,1424.875" id="my-svg-L_FOR_EACH_PARSE_0" class="edge-thickness-normal edge-pattern-solid edge-thickness-normal edge-pattern-solid flowchart-link" style=";" data-edge="true" data-et="edge" data-id="L_FOR_EACH_PARSE_0" data-points="W3sieCI6OTgzLjc0NjA5Mzc1LCJ5IjoxMzU0Ljg3NX0seyJ4Ijo5ODMuNzQ2MDkzNzUsInkiOjEzOTEuODc1fSx7IngiOjk4My43NDYwOTM3NSwieSI6MTQyOC44NzV9XQ==" data-look="classic" marker-end="url(#my-svg_flowchart-v2-pointEnd)"/><path d="M1045.569,1554.875L1049.658,1559.042C1053.746,1563.208,1061.924,1571.542,1066.013,1579.208C1070.102,1586.875,1070.102,1593.875,1070.102,1597.375L1070.102,1600.875" id="my-svg-L_PARSE_IS_IN_WINDOW_0" class="edge-thickness-normal edge-pattern-solid edge-thickness-normal edge-pattern-solid flowchart-link" style=";" data-edge="true" data-et="edge" data-id="L_PARSE_IS_IN_WINDOW_0" data-points="W3sieCI6MTA0NS41Njg3NTg4Nzc4NDEsInkiOjE1NTQuODc1fSx7IngiOjEwNzAuMTAxNTYyNSwieSI6MTU3OS44NzV9LHsieCI6MTA3MC4xMDE1NjI1LCJ5IjoxNjA0Ljg3NX1d" data-look="classic" marker-end="url(#my-svg_flowchart-v2-pointEnd)"/><path d="M963.973,1774.168L883.811,1798.023C803.648,1821.878,643.324,1869.587,563.162,1904.109C483,1938.63,483,1959.964,483,1981.297C483,2002.63,483,2023.964,483,2040.13C483,2056.297,483,2067.297,483,2072.797L483,2078.297" id="my-svg-L_IS_IN_WINDOW_RETURN_BEHAVIOR_0" class="edge-thickness-normal edge-pattern-solid edge-thickness-normal edge-pattern-solid flowchart-link" style=";" data-edge="true" data-et="edge" data-id="L_IS_IN_WINDOW_RETURN_BEHAVIOR_0" data-points="W3sieCI6OTYzLjk3MjY4MzU3MDM1NTUsInkiOjE3NzQuMTY3OTk2MDcwMzU1NX0seyJ4Ijo0ODMsInkiOjE5MTcuMjk2ODc1fSx7IngiOjQ4MywieSI6MTk4MS4yOTY4NzV9LHsieCI6NDgzLCJ5IjoyMDQ1LjI5Njg3NX0seyJ4Ijo0ODMsInkiOjIwODIuMjk2ODc1fV0=" data-look="classic" marker-end="url(#my-svg_flowchart-v2-pointEnd)"/><path d="M1070.102,1880.297L1070.102,1886.464C1070.102,1892.63,1070.102,1904.964,1062.316,1916.9C1054.531,1928.836,1038.961,1940.376,1031.176,1946.145L1023.391,1951.915" id="my-svg-L_IS_IN_WINDOW_NEXT_ENTRY_0" class="edge-thickness-normal edge-pattern-solid edge-thickness-normal edge-pattern-solid flowchart-link" style=";" data-edge="true" data-et="edge" data-id="L_IS_IN_WINDOW_NEXT_ENTRY_0" data-points="W3sieCI6MTA3MC4xMDE1NjI1LCJ5IjoxODgwLjI5Njg3NX0seyJ4IjoxMDcwLjEwMTU2MjUsInkiOjE5MTcuMjk2ODc1fSx7IngiOjEwMjAuMTc3MzA3MTI4OTA2MiwieSI6MTk1NC4yOTY4NzV9XQ==" data-look="classic" marker-end="url(#my-svg_flowchart-v2-pointEnd)"/><path d="M941.811,1954.297L932.233,1948.13C922.655,1941.964,903.499,1929.63,893.922,1894.345C884.344,1859.06,884.344,1800.823,884.344,1744.586C884.344,1688.349,884.344,1634.112,888.551,1603.269C892.759,1572.425,901.173,1564.976,905.381,1561.251L909.588,1557.526" id="my-svg-L_NEXT_ENTRY_PARSE_0" class="edge-thickness-normal edge-pattern-solid edge-thickness-normal edge-pattern-solid flowchart-link" style=";" data-edge="true" data-et="edge" data-id="L_NEXT_ENTRY_PARSE_0" data-points="W3sieCI6OTQxLjgxMDcyOTk4MDQ2ODgsInkiOjE5NTQuMjk2ODc1fSx7IngiOjg4NC4zNDM3NSwieSI6MTkxNy4yOTY4NzV9LHsieCI6ODg0LjM0Mzc1LCJ5IjoxNzQyLjU4NTkzNzV9LHsieCI6ODg0LjM0Mzc1LCJ5IjoxNTc5Ljg3NX0seyJ4Ijo5MTIuNTgzMDUyMjAxNzA0NSwieSI6MTU1NC44NzV9XQ==" data-look="classic" marker-end="url(#my-svg_flowchart-v2-pointEnd)"/><path d="M983.746,2008.297L983.746,2014.464C983.746,2020.63,983.746,2032.964,983.746,2046.63C983.746,2060.297,983.746,2075.297,983.746,2082.797L983.746,2090.297" id="my-svg-L_NEXT_ENTRY_NULL_RETURN2_0" class="edge-thickness-normal edge-pattern-solid edge-thickness-normal edge-pattern-solid flowchart-link" style=";" data-edge="true" data-et="edge" data-id="L_NEXT_ENTRY_NULL_RETURN2_0" data-points="W3sieCI6OTgzLjc0NjA5Mzc1LCJ5IjoyMDA4LjI5Njg3NX0seyJ4Ijo5ODMuNzQ2MDkzNzUsInkiOjIwNDUuMjk2ODc1fSx7IngiOjk4My43NDYwOTM3NSwieSI6MjA5NC4yOTY4NzV9XQ==" data-look="classic" marker-end="url(#my-svg_flowchart-v2-pointEnd)"/><path d="M379.773,2142.608L345.311,2149.723C310.849,2156.838,241.924,2171.067,207.462,2182.349C173,2193.63,173,2201.964,173,2209.63C173,2217.297,173,2224.297,173,2227.797L173,2231.297" id="my-svg-L_RETURN_BEHAVIOR_B1_0" class="edge-thickness-normal edge-pattern-solid edge-thickness-normal edge-pattern-solid flowchart-link" style=";" data-edge="true" data-et="edge" data-id="L_RETURN_BEHAVIOR_B1_0" data-points="W3sieCI6Mzc5Ljc3MzQzNzUsInkiOjIxNDIuNjA4MTY1MzIyNTgwNn0seyJ4IjoxNzMsInkiOjIxODUuMjk2ODc1fSx7IngiOjE3MywieSI6MjIxMC4yOTY4NzV9LHsieCI6MTczLCJ5IjoyMjM1LjI5Njg3NX1d" data-look="classic" marker-end="url(#my-svg_flowchart-v2-pointEnd)"/><path d="M483,2160.297L483,2164.464C483,2168.63,483,2176.964,483,2185.297C483,2193.63,483,2201.964,483,2211.63C483,2221.297,483,2232.297,483,2237.797L483,2243.297" id="my-svg-L_RETURN_BEHAVIOR_B2_0" class="edge-thickness-normal edge-pattern-solid edge-thickness-normal edge-pattern-solid flowchart-link" style=";" data-edge="true" data-et="edge" data-id="L_RETURN_BEHAVIOR_B2_0" data-points="W3sieCI6NDgzLCJ5IjoyMTYwLjI5Njg3NX0seyJ4Ijo0ODMsInkiOjIxODUuMjk2ODc1fSx7IngiOjQ4MywieSI6MjIxMC4yOTY4NzV9LHsieCI6NDgzLCJ5IjoyMjQ3LjI5Njg3NX1d" data-look="classic" marker-end="url(#my-svg_flowchart-v2-pointEnd)"/><path d="M586.227,2142.608L620.689,2149.723C655.151,2156.838,724.076,2171.067,758.538,2182.349C793,2193.63,793,2201.964,793,2211.63C793,2221.297,793,2232.297,793,2237.797L793,2243.297" id="my-svg-L_RETURN_BEHAVIOR_B3_0" class="edge-thickness-normal edge-pattern-solid edge-thickness-normal edge-pattern-solid flowchart-link" style=";" data-edge="true" data-et="edge" data-id="L_RETURN_BEHAVIOR_B3_0" data-points="W3sieCI6NTg2LjIyNjU2MjUsInkiOjIxNDIuNjA4MTY1MzIyNTgwNn0seyJ4Ijo3OTMsInkiOjIxODUuMjk2ODc1fSx7IngiOjc5MywieSI6MjIxMC4yOTY4NzV9LHsieCI6NzkzLCJ5IjoyMjQ3LjI5Njg3NX1d" data-look="classic" marker-end="url(#my-svg_flowchart-v2-pointEnd)"/><path d="M1275.711,2148.297L1275.711,2154.464C1275.711,2160.63,1275.711,2172.964,1275.711,2183.297C1275.711,2193.63,1275.711,2201.964,1262.307,2212.028C1248.904,2222.093,1222.096,2233.889,1208.693,2239.788L1195.289,2245.686" id="my-svg-L_NULL_RETURN_B4_0" class="edge-thickness-normal edge-pattern-solid edge-thickness-normal edge-pattern-solid flowchart-link" style=";" data-edge="true" data-et="edge" data-id="L_NULL_RETURN_B4_0" data-points="W3sieCI6MTI3NS43MTA5Mzc1LCJ5IjoyMTQ4LjI5Njg3NX0seyJ4IjoxMjc1LjcxMDkzNzUsInkiOjIxODUuMjk2ODc1fSx7IngiOjEyNzUuNzEwOTM3NSwieSI6MjIxMC4yOTY4NzV9LHsieCI6MTE5MS42Mjc5ODEwODU1MjYyLCJ5IjoyMjQ3LjI5Njg3NX1d" data-look="classic" marker-end="url(#my-svg_flowchart-v2-pointEnd)"/><path d="M983.746,2148.297L983.746,2154.464C983.746,2160.63,983.746,2172.964,983.746,2183.297C983.746,2193.63,983.746,2201.964,992.86,2211.939C1001.974,2221.914,1020.202,2233.53,1029.317,2239.339L1038.431,2245.147" id="my-svg-L_NULL_RETURN2_B4_0" class="edge-thickness-normal edge-pattern-solid edge-thickness-normal edge-pattern-solid flowchart-link" style=";" data-edge="true" data-et="edge" data-id="L_NULL_RETURN2_B4_0" data-points="W3sieCI6OTgzLjc0NjA5Mzc1LCJ5IjoyMTQ4LjI5Njg3NX0seyJ4Ijo5ODMuNzQ2MDkzNzUsInkiOjIxODUuMjk2ODc1fSx7IngiOjk4My43NDYwOTM3NSwieSI6MjIxMC4yOTY4NzV9LHsieCI6MTA0MS44MDM5MTY1Mjk2MDUyLCJ5IjoyMjQ3LjI5Njg3NX1d" data-look="classic" marker-end="url(#my-svg_flowchart-v2-pointEnd)"/></g><g class="edgeLabels"><g class="edgeLabel"><g class="label" data-id="L_START_CHECK_SCHED_0" transform="translate(0, 0)"><foreignObject width="0" height="0"><div xmlns="http://www.w3.org/1999/xhtml" class="labelBkg" style="display: table-cell; white-space: nowrap; line-height: 1.5; max-width: 200px; text-align: center;"><span class="edgeLabel"></span></div></foreignObject></g></g><g class="edgeLabel" transform="translate(1275.7109375, 1391.875)"><g class="label" data-id="L_CHECK_SCHED_NULL_RETURN_0" transform="translate(-8.8984375, -12)"><foreignObject width="17.796875" height="24"><div xmlns="http://www.w3.org/1999/xhtml" class="labelBkg" style="display: table-cell; white-space: nowrap; line-height: 1.5; max-width: 200px; text-align: center;"><span class="edgeLabel"><p>no</p></span></div></foreignObject></g></g><g class="edgeLabel" transform="translate(983.74609375, 887.875)"><g class="label" data-id="L_CHECK_SCHED_GET_TZ_0" transform="translate(-12.453125, -12)"><foreignObject width="24.90625" height="24"><div xmlns="http://www.w3.org/1999/xhtml" class="labelBkg" style="display: table-cell; white-space: nowrap; line-height: 1.5; max-width: 200px; text-align: center;"><span class="edgeLabel"><p>yes</p></span></div></foreignObject></g></g><g class="edgeLabel"><g class="label" data-id="L_GET_TZ_COMPUTE_NOW_0" transform="translate(0, 0)"><foreignObject width="0" height="0"><div xmlns="http://www.w3.org/1999/xhtml" class="labelBkg" style="display: table-cell; white-space: nowrap; line-height: 1.5; max-width: 200px; text-align: center;"><span class="edgeLabel"></span></div></foreignObject></g></g><g class="edgeLabel"><g class="label" data-id="L_COMPUTE_NOW_FOR_EACH_0" transform="translate(0, 0)"><foreignObject width="0" height="0"><div xmlns="http://www.w3.org/1999/xhtml" class="labelBkg" style="display: table-cell; white-space: nowrap; line-height: 1.5; max-width: 200px; text-align: center;"><span class="edgeLabel"></span></div></foreignObject></g></g><g class="edgeLabel"><g class="label" data-id="L_FOR_EACH_PARSE_0" transform="translate(0, 0)"><foreignObject width="0" height="0"><div xmlns="http://www.w3.org/1999/xhtml" class="labelBkg" style="display: table-cell; white-space: nowrap; line-height: 1.5; max-width: 200px; text-align: center;"><span class="edgeLabel"></span></div></foreignObject></g></g><g class="edgeLabel"><g class="label" data-id="L_PARSE_IS_IN_WINDOW_0" transform="translate(0, 0)"><foreignObject width="0" height="0"><div xmlns="http://www.w3.org/1999/xhtml" class="labelBkg" style="display: table-cell; white-space: nowrap; line-height: 1.5; max-width: 200px; text-align: center;"><span class="edgeLabel"></span></div></foreignObject></g></g><g class="edgeLabel" transform="translate(483, 1981.296875)"><g class="label" data-id="L_IS_IN_WINDOW_RETURN_BEHAVIOR_0" transform="translate(-12.453125, -12)"><foreignObject width="24.90625" height="24"><div xmlns="http://www.w3.org/1999/xhtml" class="labelBkg" style="display: table-cell; white-space: nowrap; line-height: 1.5; max-width: 200px; text-align: center;"><span class="edgeLabel"><p>yes</p></span></div></foreignObject></g></g><g class="edgeLabel" transform="translate(1070.1015625, 1917.296875)"><g class="label" data-id="L_IS_IN_WINDOW_NEXT_ENTRY_0" transform="translate(-8.8984375, -12)"><foreignObject width="17.796875" height="24"><div xmlns="http://www.w3.org/1999/xhtml" class="labelBkg" style="display: table-cell; white-space: nowrap; line-height: 1.5; max-width: 200px; text-align: center;"><span class="edgeLabel"><p>no</p></span></div></foreignObject></g></g><g class="edgeLabel"><g class="label" data-id="L_NEXT_ENTRY_PARSE_0" transform="translate(0, 0)"><foreignObject width="0" height="0"><div xmlns="http://www.w3.org/1999/xhtml" class="labelBkg" style="display: table-cell; white-space: nowrap; line-height: 1.5; max-width: 200px; text-align: center;"><span class="edgeLabel"></span></div></foreignObject></g></g><g class="edgeLabel" transform="translate(983.74609375, 2045.296875)"><g class="label" data-id="L_NEXT_ENTRY_NULL_RETURN2_0" transform="translate(-55.5859375, -12)"><foreignObject width="111.171875" height="24"><div xmlns="http://www.w3.org/1999/xhtml" class="labelBkg" style="display: table-cell; white-space: nowrap; line-height: 1.5; max-width: 200px; text-align: center;"><span class="edgeLabel"><p>no more entries</p></span></div></foreignObject></g></g><g class="edgeLabel"><g class="label" data-id="L_RETURN_BEHAVIOR_B1_0" transform="translate(0, 0)"><foreignObject width="0" height="0"><div xmlns="http://www.w3.org/1999/xhtml" class="labelBkg" style="display: table-cell; white-space: nowrap; line-height: 1.5; max-width: 200px; text-align: center;"><span class="edgeLabel"></span></div></foreignObject></g></g><g class="edgeLabel"><g class="label" data-id="L_RETURN_BEHAVIOR_B2_0" transform="translate(0, 0)"><foreignObject width="0" height="0"><div xmlns="http://www.w3.org/1999/xhtml" class="labelBkg" style="display: table-cell; white-space: nowrap; line-height: 1.5; max-width: 200px; text-align: center;"><span class="edgeLabel"></span></div></foreignObject></g></g><g class="edgeLabel"><g class="label" data-id="L_RETURN_BEHAVIOR_B3_0" transform="translate(0, 0)"><foreignObject width="0" height="0"><div xmlns="http://www.w3.org/1999/xhtml" class="labelBkg" style="display: table-cell; white-space: nowrap; line-height: 1.5; max-width: 200px; text-align: center;"><span class="edgeLabel"></span></div></foreignObject></g></g><g class="edgeLabel"><g class="label" data-id="L_NULL_RETURN_B4_0" transform="translate(0, 0)"><foreignObject width="0" height="0"><div xmlns="http://www.w3.org/1999/xhtml" class="labelBkg" style="display: table-cell; white-space: nowrap; line-height: 1.5; max-width: 200px; text-align: center;"><span class="edgeLabel"></span></div></foreignObject></g></g><g class="edgeLabel"><g class="label" data-id="L_NULL_RETURN2_B4_0" transform="translate(0, 0)"><foreignObject width="0" height="0"><div xmlns="http://www.w3.org/1999/xhtml" class="labelBkg" style="display: table-cell; white-space: nowrap; line-height: 1.5; max-width: 200px; text-align: center;"><span class="edgeLabel"></span></div></foreignObject></g></g></g><g class="nodes"><g class="root" transform="translate(154.47876739501953, 0)"><g class="clusters"><g class="cluster" id="my-svg-subGraph0" data-look="classic"><rect style="" x="8" y="8" width="809.671875" height="549.453125"/><g class="cluster-label" transform="translate(314.5703125, 8)"><foreignObject width="196.53125" height="24"><div xmlns="http://www.w3.org/1999/xhtml" style="display: table-cell; white-space: nowrap; line-height: 1.5;"><span class="nodeLabel"><p>isInWindow(now, start, end)</p></span></div></foreignObject></g></g></g><g class="edgePaths"><path d="M165.793,251.508L186.565,236.168C207.336,220.827,248.879,190.146,284.348,174.805C319.818,159.465,349.214,159.465,363.911,159.465L378.609,159.465" id="my-svg-L_CHECK_OVERFLOW_SIMPLE_0" class="edge-thickness-normal edge-pattern-solid edge-thickness-normal edge-pattern-solid flowchart-link" style=";" data-edge="true" data-et="edge" data-id="L_CHECK_OVERFLOW_SIMPLE_0" data-points="W3sieCI6MTY1Ljc5MzIzMzc5MDU1Njk0LCJ5IjoyNTEuNTA4MDc3NTQwNTU2OTR9LHsieCI6MjkwLjQyMTg3NSwieSI6MTU5LjQ2NDg0Mzc1fSx7IngiOjM4Mi42MDkzNzUsInkiOjE1OS40NjQ4NDM3NX1d" data-look="classic" marker-end="url(#my-svg_flowchart-v2-pointEnd)"/><path d="M165.793,316.39L186.565,331.731C207.336,347.071,248.879,377.753,285.163,393.093C321.448,408.434,352.474,408.434,367.987,408.434L383.5,408.434" id="my-svg-L_CHECK_OVERFLOW_OVERFLOW_0" class="edge-thickness-normal edge-pattern-solid edge-thickness-normal edge-pattern-solid flowchart-link" style=";" data-edge="true" data-et="edge" data-id="L_CHECK_OVERFLOW_OVERFLOW_0" data-points="W3sieCI6MTY1Ljc5MzIzMzc5MDU1Njk0LCJ5IjozMTYuMzkwMzU5OTU5NDQzMDZ9LHsieCI6MjkwLjQyMTg3NSwieSI6NDA4LjQzMzU5Mzc1fSx7IngiOjM4Ny41LCJ5Ijo0MDguNDMzNTkzNzV9XQ==" data-look="classic" marker-end="url(#my-svg_flowchart-v2-pointEnd)"/><path d="M560.472,133.468L573.13,129.134C585.788,124.8,611.105,116.133,631.941,111.799C652.776,107.465,669.13,107.465,677.307,107.465L685.484,107.465" id="my-svg-L_SIMPLE_TRUE_RET_0" class="edge-thickness-normal edge-pattern-solid edge-thickness-normal edge-pattern-solid flowchart-link" style=";" data-edge="true" data-et="edge" data-id="L_SIMPLE_TRUE_RET_0" data-points="W3sieCI6NTYwLjQ3MTczODg0OTI5MywieSI6MTMzLjQ2NzgzMjU5OTI5MzAyfSx7IngiOjYzNi40MjE4NzUsInkiOjEwNy40NjQ4NDM3NX0seyJ4Ijo2ODkuNDg0Mzc1LCJ5IjoxMDcuNDY0ODQzNzV9XQ==" data-look="classic" marker-end="url(#my-svg_flowchart-v2-pointEnd)"/><path d="M553.539,192.394L567.353,198.987C581.167,205.579,608.794,218.764,630.267,225.357C651.74,231.949,667.057,231.949,674.716,231.949L682.375,231.949" id="my-svg-L_SIMPLE_FALSE_RET_0" class="edge-thickness-normal edge-pattern-solid edge-thickness-normal edge-pattern-solid flowchart-link" style=";" data-edge="true" data-et="edge" data-id="L_SIMPLE_FALSE_RET_0" data-points="W3sieCI6NTUzLjUzOTIwMzY4NDg0MjcsInkiOjE5Mi4zOTQzOTAwNjUxNTcyfSx7IngiOjYzNi40MjE4NzUsInkiOjIzMS45NDkyMTg3NX0seyJ4Ijo2ODYuMzc1LCJ5IjoyMzEuOTQ5MjE4NzV9XQ==" data-look="classic" marker-end="url(#my-svg_flowchart-v2-pointEnd)"/><path d="M550.229,377.084L564.594,370.228C578.96,363.372,607.691,349.661,630.233,342.805C652.776,335.949,669.13,335.949,677.307,335.949L685.484,335.949" id="my-svg-L_OVERFLOW_TRUE_RET2_0" class="edge-thickness-normal edge-pattern-solid edge-thickness-normal edge-pattern-solid flowchart-link" style=";" data-edge="true" data-et="edge" data-id="L_OVERFLOW_TRUE_RET2_0" data-points="W3sieCI6NTUwLjIyODU1MDc4NTE5NDQsInkiOjM3Ny4wODQwMTk1MzUxOTQ0NH0seyJ4Ijo2MzYuNDIxODc1LCJ5IjozMzUuOTQ5MjE4NzV9LHsieCI6Njg5LjQ4NDM3NSwieSI6MzM1Ljk0OTIxODc1fV0=" data-look="classic" marker-end="url(#my-svg_flowchart-v2-pointEnd)"/><path d="M556.828,433.183L570.094,437.725C583.36,442.267,609.891,451.35,630.815,455.892C651.74,460.434,667.057,460.434,674.716,460.434L682.375,460.434" id="my-svg-L_OVERFLOW_FALSE_RET2_0" class="edge-thickness-normal edge-pattern-solid edge-thickness-normal edge-pattern-solid flowchart-link" style=";" data-edge="true" data-et="edge" data-id="L_OVERFLOW_FALSE_RET2_0" data-points="W3sieCI6NTU2LjgyODQ2MDI4NzU4MDksInkiOjQzMy4xODMyNTg0NjI0MTkxfSx7IngiOjYzNi40MjE4NzUsInkiOjQ2MC40MzM1OTM3NX0seyJ4Ijo2ODYuMzc1LCJ5Ijo0NjAuNDMzNTkzNzV9XQ==" data-look="classic" marker-end="url(#my-svg_flowchart-v2-pointEnd)"/></g><g class="edgeLabels"><g class="edgeLabel" transform="translate(290.421875, 159.46484375)"><g class="label" data-id="L_CHECK_OVERFLOW_SIMPLE_0" transform="translate(-54.6875, -12)"><foreignObject width="109.375" height="24"><div xmlns="http://www.w3.org/1999/xhtml" class="labelBkg" style="display: table-cell; white-space: nowrap; line-height: 1.5; max-width: 200px; text-align: center;"><span class="edgeLabel"><p>yes (same day)</p></span></div></foreignObject></g></g><g class="edgeLabel" transform="translate(290.421875, 408.43359375)"><g class="label" data-id="L_CHECK_OVERFLOW_OVERFLOW_0" transform="translate(-51.359375, -12)"><foreignObject width="102.71875" height="24"><div xmlns="http://www.w3.org/1999/xhtml" class="labelBkg" style="display: table-cell; white-space: nowrap; line-height: 1.5; max-width: 200px; text-align: center;"><span class="edgeLabel"><p>no (midnight+)</p></span></div></foreignObject></g></g><g class="edgeLabel" transform="translate(636.421875, 107.46484375)"><g class="label" data-id="L_SIMPLE_TRUE_RET_0" transform="translate(-12.453125, -12)"><foreignObject width="24.90625" height="24"><div xmlns="http://www.w3.org/1999/xhtml" class="labelBkg" style="display: table-cell; white-space: nowrap; line-height: 1.5; max-width: 200px; text-align: center;"><span class="edgeLabel"><p>yes</p></span></div></foreignObject></g></g><g class="edgeLabel" transform="translate(636.421875, 231.94921875)"><g class="label" data-id="L_SIMPLE_FALSE_RET_0" transform="translate(-8.8984375, -12)"><foreignObject width="17.796875" height="24"><div xmlns="http://www.w3.org/1999/xhtml" class="labelBkg" style="display: table-cell; white-space: nowrap; line-height: 1.5; max-width: 200px; text-align: center;"><span class="edgeLabel"><p>no</p></span></div></foreignObject></g></g><g class="edgeLabel" transform="translate(636.421875, 335.94921875)"><g class="label" data-id="L_OVERFLOW_TRUE_RET2_0" transform="translate(-12.453125, -12)"><foreignObject width="24.90625" height="24"><div xmlns="http://www.w3.org/1999/xhtml" class="labelBkg" style="display: table-cell; white-space: nowrap; line-height: 1.5; max-width: 200px; text-align: center;"><span class="edgeLabel"><p>yes</p></span></div></foreignObject></g></g><g class="edgeLabel" transform="translate(636.421875, 460.43359375)"><g class="label" data-id="L_OVERFLOW_FALSE_RET2_0" transform="translate(-8.8984375, -12)"><foreignObject width="17.796875" height="24"><div xmlns="http://www.w3.org/1999/xhtml" class="labelBkg" style="display: table-cell; white-space: nowrap; line-height: 1.5; max-width: 200px; text-align: center;"><span class="edgeLabel"><p>no</p></span></div></foreignObject></g></g></g><g class="nodes"><g class="node default" id="my-svg-flowchart-CHECK_OVERFLOW-22" data-look="classic" transform="translate(121.8671875, 283.94921875)"><polygon points="76.3671875,0 152.734375,-76.3671875 76.3671875,-152.734375 0,-76.3671875" class="label-container" transform="translate(-75.8671875, 76.3671875)"/><g class="label" style="" transform="translate(-49.3671875, -12)"><rect/><foreignObject width="98.734375" height="24"><div xmlns="http://www.w3.org/1999/xhtml" style="display: table-cell; white-space: nowrap; line-height: 1.5; max-width: 200px; text-align: center;"><span class="nodeLabel"><p>start &lt;= end ?</p></span></div></foreignObject></g></g><g class="node default" id="my-svg-flowchart-SIMPLE-24" data-look="classic" transform="translate(484.5390625, 159.46484375)"><polygon points="101.9296875,0 203.859375,-101.9296875 101.9296875,-203.859375 0,-101.9296875" class="label-container" transform="translate(-101.4296875, 101.9296875)"/><g class="label" style="" transform="translate(-62.9296875, -24)"><rect/><foreignObject width="125.859375" height="48"><div xmlns="http://www.w3.org/1999/xhtml" style="display: table-cell; white-space: nowrap; line-height: 1.5; max-width: 200px; text-align: center;"><span class="nodeLabel"><p>now &gt;= start<br />AND now &lt; end ?</p></span></div></foreignObject></g></g><g class="node default" id="my-svg-flowchart-OVERFLOW-26" data-look="classic" transform="translate(484.5390625, 408.43359375)"><polygon points="97.0390625,0 194.078125,-97.0390625 97.0390625,-194.078125 0,-97.0390625" class="label-container" transform="translate(-96.5390625, 97.0390625)"/><g class="label" style="" transform="translate(-58.0390625, -24)"><rect/><foreignObject width="116.078125" height="48"><div xmlns="http://www.w3.org/1999/xhtml" style="display: table-cell; white-space: nowrap; line-height: 1.5; max-width: 200px; text-align: center;"><span class="nodeLabel"><p>now &gt;= start<br />OR now &lt; end ?</p></span></div></foreignObject></g></g><g class="node default" id="my-svg-flowchart-TRUE_RET-28" data-look="classic" transform="translate(733.2734375, 107.46484375)"><rect class="basic label-container" style="" x="-43.7890625" y="-27" width="87.578125" height="54"/><g class="label" style="" transform="translate(-13.7890625, -12)"><rect/><foreignObject width="27.578125" height="24"><div xmlns="http://www.w3.org/1999/xhtml" style="display: table-cell; white-space: nowrap; line-height: 1.5; max-width: 200px; text-align: center;"><span class="nodeLabel"><p>true</p></span></div></foreignObject></g></g><g class="node default" id="my-svg-flowchart-FALSE_RET-30" data-look="classic" transform="translate(733.2734375, 231.94921875)"><rect class="basic label-container" style="" x="-46.8984375" y="-27" width="93.796875" height="54"/><g class="label" style="" transform="translate(-16.8984375, -12)"><rect/><foreignObject width="33.796875" height="24"><div xmlns="http://www.w3.org/1999/xhtml" style="display: table-cell; white-space: nowrap; line-height: 1.5; max-width: 200px; text-align: center;"><span class="nodeLabel"><p>false</p></span></div></foreignObject></g></g><g class="node default" id="my-svg-flowchart-TRUE_RET2-32" data-look="classic" transform="translate(733.2734375, 335.94921875)"><rect class="basic label-container" style="" x="-43.7890625" y="-27" width="87.578125" height="54"/><g class="label" style="" transform="translate(-13.7890625, -12)"><rect/><foreignObject width="27.578125" height="24"><div xmlns="http://www.w3.org/1999/xhtml" style="display: table-cell; white-space: nowrap; line-height: 1.5; max-width: 200px; text-align: center;"><span class="nodeLabel"><p>true</p></span></div></foreignObject></g></g><g class="node default" id="my-svg-flowchart-FALSE_RET2-34" data-look="classic" transform="translate(733.2734375, 460.43359375)"><rect class="basic label-container" style="" x="-46.8984375" y="-27" width="93.796875" height="54"/><g class="label" style="" transform="translate(-16.8984375, -12)"><rect/><foreignObject width="33.796875" height="24"><div xmlns="http://www.w3.org/1999/xhtml" style="display: table-cell; white-space: nowrap; line-height: 1.5; max-width: 200px; text-align: center;"><span class="nodeLabel"><p>false</p></span></div></foreignObject></g></g></g></g><g class="node default" id="my-svg-flowchart-START-0" data-look="classic" transform="translate(1103, 282.7265625)"><g class="basic label-container outer-path"><path d="M-61.359375 -19.5 C-30.06045707886793 -19.5, 1.2384608422641392 -19.5, 61.359375 -19.5 C61.359375 -19.5, 61.359375 -19.5, 61.359375 -19.5 C61.71817351457378 -19.48849402999656, 62.07697202914756 -19.476988059993122, 62.6087442896239 -19.45993515863156 C63.04133291442077 -19.418203854261343, 63.47392153921764 -19.376472549891126, 63.852979652847864 -19.3399052695533 C64.12674073234373 -19.295645701269287, 64.40050181183962 -19.25138613298527, 65.08696825967675 -19.140403561325776 C65.40844114894544 -19.06702947215685, 65.72991403821413 -18.993655382987924, 66.30563938623538 -18.862249829261074 C66.67935119849334 -18.751334125036248, 67.0530630107513 -18.640418420811418, 67.5039852514606 -18.50658706670804 C67.80991320284731 -18.394002752630747, 68.11584115423403 -18.281418438553455, 68.6770815951478 -18.074876768247425 C69.05488179194651 -17.907635828169287, 69.43268198874522 -17.740394888091146, 69.82010791279238 -17.568892924097174 C70.24115954426881 -17.34923055765236, 70.66221117574526 -17.129568191207543, 70.92836726407678 -16.990714730406097 C71.27807323582056 -16.77872091523462, 71.62777920756433 -16.56672710006314, 71.9973055736057 -16.342718045390892 C72.22264937422466 -16.185527965055012, 72.44799317484362 -16.028337884719132, 73.02253034457871 -15.627565626425154 C73.25651580858535 -15.440968445494553, 73.490501272592 -15.254371264563954, 73.99982870850187 -14.848196188198123 C74.30824727537487 -14.568098606072171, 74.61666584224788 -14.288001023946219, 74.92518473676799 -14.007812326905688 C75.1305806732619 -13.795724159155725, 75.3359766097558 -13.583635991405762, 75.79479594296865 -13.10986736009568 C75.97433957368243 -12.898965195137263, 76.15388320439622 -12.688063030178846, 76.60508890812658 -12.158051136245305 C76.89722228039649 -11.766619031301328, 77.1893556526664 -11.375186926357353, 77.35273396464063 -11.156274872382312 C77.5982634095794 -10.779075711068788, 77.84379285451817 -10.401876549755265, 78.03465887860425 -10.108655082055241 C78.16775514876035 -9.87232917693429, 78.30085141891645 -9.63600327181334, 78.6480614742735 -9.019496659696287 C78.84695343200639 -8.606493253857792, 79.04584538973927 -8.193489848019295, 79.19042114880834 -7.893275190886684 C79.28620093047525 -7.6566972783933185, 79.38198071214215 -7.420119365899952, 79.65950922997033 -6.734618561215508 C79.77992607244501 -6.371942217500115, 79.9003429149197 -6.009265873784722, 80.05339813421489 -5.548287939305138 C80.13909903309056 -5.221473268887667, 80.22479993196623 -4.894658598470196, 80.37046928754556 -4.339158212148133 C80.43937711614575 -3.9853310759609166, 80.50828494474592 -3.6315039397737, 80.60941977658177 -3.1121979531509023 C80.65792156215228 -2.7360276820269576, 80.70642334772278 -2.3598574109030133, 80.76926770250937 -1.872449005199798 C80.7868814834237 -1.5981001498711267, 80.80449526433802 -1.3237512945424557, 80.84935621591342 -0.6250057626472757 C80.84935621591342 -0.23891944406530408, 80.84935621591342 0.14716687451666755, 80.84935621591342 0.625005762647271 C80.82637793508272 0.9829110343197556, 80.80339965425203 1.3408163059922402, 80.76926770250937 1.8724490051997846 C80.72014644625085 2.253423768651589, 80.67102518999235 2.6343985321033934, 80.60941977658177 3.1121979531508885 C80.5436517870811 3.449902679167308, 80.47788379758045 3.787607405183728, 80.37046928754556 4.339158212148129 C80.28149035493983 4.678473445887086, 80.19251142233412 5.017788679626042, 80.05339813421489 5.548287939305125 C79.94569866506217 5.872661580813037, 79.83799919590943 6.197035222320948, 79.65950922997033 6.734618561215495 C79.4722216873086 7.197222412548265, 79.28493414464687 7.659826263881035, 79.19042114880834 7.893275190886679 C79.04782125491519 8.189386921704756, 78.90522136102204 8.485498652522834, 78.6480614742735 9.019496659696284 C78.41703639336087 9.429705084682837, 78.18601131244824 9.83991350966939, 78.03465887860425 10.108655082055236 C77.85361776501537 10.38678284887369, 77.67257665142648 10.664910615692143, 77.35273396464065 11.156274872382301 C77.11488511240489 11.474970665902006, 76.87703626016915 11.793666459421711, 76.60508890812659 12.158051136245302 C76.34646423434235 12.46184639423309, 76.08783956055812 12.765641652220879, 75.79479594296866 13.10986736009567 C75.46057816324426 13.45497465745113, 75.12636038351988 13.80008195480659, 74.92518473676799 14.007812326905684 C74.70730620121941 14.205683848140755, 74.48942766567083 14.403555369375825, 73.9998287085019 14.848196188198111 C73.79010384337862 15.015446187120872, 73.58037897825534 15.182696186043632, 73.02253034457871 15.627565626425152 C72.63339559489772 15.899009182430795, 72.24426084521673 16.17045273843644, 71.9973055736057 16.34271804539089 C71.76649484714301 16.482636864166956, 71.53568412068033 16.622555682943027, 70.92836726407678 16.990714730406093 C70.57167928739933 17.176798619369166, 70.21499131072189 17.362882508332234, 69.82010791279238 17.56889292409717 C69.55325355474062 17.687021432453406, 69.28639919668886 17.805149940809642, 68.6770815951478 18.07487676824742 C68.3067131894042 18.211175765209074, 67.93634478366062 18.347474762170727, 67.50398525146062 18.506587066708033 C67.15233330407177 18.610955518834302, 66.80068135668293 18.715323970960576, 66.30563938623541 18.86224982926107 C65.90406039936826 18.953907612465706, 65.50248141250111 19.04556539567034, 65.08696825967677 19.140403561325773 C64.6784335545801 19.206452284211846, 64.26989884948344 19.27250100709792, 63.85297965284788 19.3399052695533 C63.403055630437336 19.38330889888244, 62.953131608026794 19.426712528211578, 62.6087442896239 19.45993515863156 C62.26799102035271 19.470862452741084, 61.92723775108151 19.48178974685061, 61.35937500000001 19.5 C61.35937500000001 19.5, 61.359375 19.5, 61.359375 19.5 C29.334294683153594 19.5, -2.690785633692812 19.5, -61.35937499999999 19.5 C-61.84770073007047 19.48434034430501, -62.33602646014095 19.468680688610025, -62.60874428962389 19.45993515863156 C-62.894903419858586 19.432329731494523, -63.18106255009328 19.40472430435749, -63.85297965284787 19.3399052695533 C-64.26250804175959 19.27369589557414, -64.6720364306713 19.207486521594983, -65.08696825967675 19.140403561325773 C-65.54821029811943 19.03512807593682, -66.00945233656209 18.929852590547874, -66.30563938623538 18.862249829261074 C-66.7343080138986 18.735023230698175, -67.16297664156183 18.607796632135276, -67.50398525146059 18.506587066708043 C-67.91063482272824 18.35693626545412, -68.31728439399588 18.207285464200197, -68.6770815951478 18.074876768247425 C-69.02401475017052 17.921299751925257, -69.37094790519323 17.767722735603087, -69.82010791279238 17.568892924097174 C-70.2023830634798 17.369460222842466, -70.58465821416722 17.17002752158776, -70.92836726407678 16.990714730406097 C-71.1668271591309 16.8461589406784, -71.40528705418502 16.7016031509507, -71.99730557360569 16.3427180453909 C-72.2514023992608 16.165471099488194, -72.50549922491591 15.98822415358549, -73.02253034457871 15.627565626425156 C-73.39614963310403 15.329614186253032, -73.76976892162935 15.03166274608091, -73.99982870850187 14.848196188198125 C-74.27051774761976 14.602363564910764, -74.54120678673765 14.356530941623404, -74.92518473676797 14.007812326905697 C-75.20481950044747 13.719066474965546, -75.48445426412697 13.430320623025395, -75.79479594296865 13.109867360095677 C-75.96095825456827 12.914683653987389, -76.12712056616789 12.719499947879099, -76.60508890812658 12.158051136245307 C-76.81140510222541 11.881606231944824, -77.01772129632424 11.60516132764434, -77.35273396464063 11.156274872382316 C-77.5762852976613 10.812839992924385, -77.79983663068198 10.469405113466456, -78.03465887860425 10.108655082055249 C-78.17047824121923 9.867494050530542, -78.30629760383421 9.626333019005836, -78.6480614742735 9.019496659696289 C-78.85177517182015 8.596480807965797, -79.05548886936681 8.173464956235303, -79.19042114880834 7.893275190886686 C-79.3690669832058 7.452016526042738, -79.54771281760324 7.0107578611987895, -79.65950922997033 6.73461856121551 C-79.78249212370105 6.364213679961679, -79.90547501743177 5.993808798707848, -80.05339813421489 5.5482879393051325 C-80.13235019543535 5.247209511831718, -80.21130225665581 4.946131084358303, -80.37046928754556 4.339158212148136 C-80.42187177223572 4.075217317183175, -80.47327425692588 3.8112764222182145, -80.60941977658177 3.112197953150904 C-80.65951161302743 2.723695561430347, -80.7096034494731 2.3351931697097896, -80.76926770250937 1.872449005199809 C-80.78827215840717 1.5764392644708878, -80.80727661430497 1.2804295237419665, -80.84935621591342 0.6250057626472781 C-80.84935621591342 0.22051103033832153, -80.84935621591342 -0.18398370197063507, -80.84935621591342 -0.6250057626472687 C-80.81759083504984 -1.119777210151273, -80.78582545418628 -1.6145486576552774, -80.76926770250937 -1.8724490051997822 C-80.72775930936034 -2.1943799057043245, -80.6862509162113 -2.5163108062088666, -80.60941977658177 -3.112197953150895 C-80.53158887906301 -3.5118431623437236, -80.45375798154426 -3.911488371536552, -80.37046928754556 -4.339158212148126 C-80.24942266222286 -4.800761456442871, -80.12837603690015 -5.262364700737615, -80.05339813421489 -5.548287939305123 C-79.9394566396255 -5.891461566896535, -79.82551514503614 -6.234635194487946, -79.65950922997033 -6.734618561215485 C-79.51655281040901 -7.087723681406295, -79.37359639084768 -7.440828801597106, -79.19042114880834 -7.893275190886676 C-78.98387615917267 -8.322170281219954, -78.777331169537 -8.751065371553231, -78.6480614742735 -9.019496659696282 C-78.52475617964214 -9.238437696329294, -78.40145088501077 -9.457378732962306, -78.03465887860425 -10.108655082055243 C-77.8716035496012 -10.359151853890445, -77.70854822059815 -10.609648625725647, -77.35273396464063 -11.156274872382308 C-77.19080368092699 -11.373246700406266, -77.02887339721335 -11.590218528430226, -76.60508890812659 -12.158051136245302 C-76.4292941604389 -12.364549649883772, -76.25349941275122 -12.571048163522242, -75.79479594296866 -13.10986736009567 C-75.6032851305143 -13.307617997284922, -75.41177431805993 -13.505368634474173, -74.92518473676799 -14.007812326905677 C-74.69029629993844 -14.221131790426801, -74.45540786310889 -14.434451253947925, -73.9998287085019 -14.848196188198107 C-73.61970989882593 -15.151330823528342, -73.23959108914997 -15.454465458858575, -73.02253034457871 -15.627565626425149 C-72.78322328760025 -15.79449586993779, -72.54391623062179 -15.961426113450434, -71.99730557360571 -16.342718045390885 C-71.68516431720279 -16.53193990936797, -71.37302306079985 -16.721161773345056, -70.92836726407678 -16.99071473040609 C-70.62534429256738 -17.148801620547072, -70.32232132105797 -17.306888510688058, -69.8201079127924 -17.56889292409717 C-69.39023134009776 -17.75918653099363, -68.96035476740312 -17.949480137890088, -68.67708159514781 -18.07487676824742 C-68.32612461812856 -18.20403218000124, -67.9751676411093 -18.333187591755056, -67.50398525146062 -18.506587066708033 C-67.1908265731171 -18.59953091863694, -66.87766789477358 -18.692474770565852, -66.30563938623541 -18.862249829261067 C-65.93726153890258 -18.946329669024678, -65.56888369156975 -19.03040950878829, -65.08696825967677 -19.140403561325773 C-64.6846560395192 -19.205446281102983, -64.28234381936163 -19.270489000880197, -63.85297965284788 -19.3399052695533 C-63.56464604209396 -19.367720466210827, -63.276312431340045 -19.395535662868358, -62.6087442896239 -19.45993515863156 C-62.26192733858505 -19.47105690321313, -61.9151103875462 -19.482178647794704, -61.35937500000001 -19.5 C-61.35937500000001 -19.5, -61.359375 -19.5, -61.359375 -19.5" stroke="none" stroke-width="0" fill="#ECECFF" style=""/><path d="M-61.359375 -19.5 C-26.52705808824779 -19.5, 8.305258823504417 -19.5, 61.359375 -19.5 M-61.359375 -19.5 C-23.67154637602406 -19.5, 14.016282247951878 -19.5, 61.359375 -19.5 M61.359375 -19.5 C61.359375 -19.5, 61.359375 -19.5, 61.359375 -19.5 M61.359375 -19.5 C61.359375 -19.5, 61.359375 -19.5, 61.359375 -19.5 M61.359375 -19.5 C61.78418106479632 -19.486377296336826, 62.20898712959264 -19.472754592673652, 62.6087442896239 -19.45993515863156 M61.359375 -19.5 C61.81582823672601 -19.485362433130526, 62.272281473452026 -19.470724866261047, 62.6087442896239 -19.45993515863156 M62.6087442896239 -19.45993515863156 C63.08263704963227 -19.41421929401298, 63.55652980964064 -19.3685034293944, 63.852979652847864 -19.3399052695533 M62.6087442896239 -19.45993515863156 C62.950936418705844 -19.42692429548527, 63.29312854778778 -19.39391343233898, 63.852979652847864 -19.3399052695533 M63.852979652847864 -19.3399052695533 C64.21514183248092 -19.281353696959876, 64.57730401211398 -19.222802124366453, 65.08696825967675 -19.140403561325776 M63.852979652847864 -19.3399052695533 C64.28076221028604 -19.270744703169974, 64.70854476772423 -19.20158413678665, 65.08696825967675 -19.140403561325776 M65.08696825967675 -19.140403561325776 C65.53021252397858 -19.039235950438023, 65.97345678828039 -18.938068339550266, 66.30563938623538 -18.862249829261074 M65.08696825967675 -19.140403561325776 C65.36962666973949 -19.07588862374746, 65.65228507980224 -19.011373686169144, 66.30563938623538 -18.862249829261074 M66.30563938623538 -18.862249829261074 C66.74129066900507 -18.73295081531528, 67.17694195177475 -18.603651801369487, 67.5039852514606 -18.50658706670804 M66.30563938623538 -18.862249829261074 C66.60415156535008 -18.773652981422234, 66.90266374446479 -18.685056133583398, 67.5039852514606 -18.50658706670804 M67.5039852514606 -18.50658706670804 C67.818744708304 -18.390752676985148, 68.1335041651474 -18.274918287262253, 68.6770815951478 -18.074876768247425 M67.5039852514606 -18.50658706670804 C67.87613569740424 -18.369632262479772, 68.24828614334787 -18.232677458251505, 68.6770815951478 -18.074876768247425 M68.6770815951478 -18.074876768247425 C69.06826123298734 -17.90171314650753, 69.45944087082688 -17.728549524767633, 69.82010791279238 -17.568892924097174 M68.6770815951478 -18.074876768247425 C69.03044957121375 -17.918451247531596, 69.38381754727972 -17.76202572681577, 69.82010791279238 -17.568892924097174 M69.82010791279238 -17.568892924097174 C70.15484159158727 -17.394262578277033, 70.48957527038218 -17.21963223245689, 70.92836726407678 -16.990714730406097 M69.82010791279238 -17.568892924097174 C70.070725850795 -17.43814570636966, 70.3213437887976 -17.30739848864215, 70.92836726407678 -16.990714730406097 M70.92836726407678 -16.990714730406097 C71.34525331781148 -16.737995954737734, 71.76213937154618 -16.485277179069374, 71.9973055736057 -16.342718045390892 M70.92836726407678 -16.990714730406097 C71.16746114443546 -16.845774615061064, 71.40655502479414 -16.700834499716034, 71.9973055736057 -16.342718045390892 M71.9973055736057 -16.342718045390892 C72.37128937863726 -16.08184313249887, 72.7452731836688 -15.82096821960685, 73.02253034457871 -15.627565626425154 M71.9973055736057 -16.342718045390892 C72.24262541268705 -16.171593545372417, 72.4879452517684 -16.00046904535394, 73.02253034457871 -15.627565626425154 M73.02253034457871 -15.627565626425154 C73.27565240369786 -15.425707520138513, 73.52877446281701 -15.223849413851871, 73.99982870850187 -14.848196188198123 M73.02253034457871 -15.627565626425154 C73.38357659231556 -15.339640851699171, 73.74462284005241 -15.051716076973186, 73.99982870850187 -14.848196188198123 M73.99982870850187 -14.848196188198123 C74.20365499209703 -14.663086550384943, 74.40748127569218 -14.477976912571762, 74.92518473676799 -14.007812326905688 M73.99982870850187 -14.848196188198123 C74.32389207496284 -14.553890413025096, 74.6479554414238 -14.259584637852068, 74.92518473676799 -14.007812326905688 M74.92518473676799 -14.007812326905688 C75.10458758696805 -13.8225641548262, 75.2839904371681 -13.637315982746712, 75.79479594296865 -13.10986736009568 M74.92518473676799 -14.007812326905688 C75.10655547877013 -13.820532144973626, 75.28792622077228 -13.633251963041564, 75.79479594296865 -13.10986736009568 M75.79479594296865 -13.10986736009568 C76.09514279003817 -12.757062863308088, 76.39548963710767 -12.404258366520493, 76.60508890812658 -12.158051136245305 M75.79479594296865 -13.10986736009568 C76.01992744269376 -12.845415090173324, 76.24505894241888 -12.580962820250967, 76.60508890812658 -12.158051136245305 M76.60508890812658 -12.158051136245305 C76.83415726746924 -11.851120403282982, 77.0632256268119 -11.544189670320659, 77.35273396464063 -11.156274872382312 M76.60508890812658 -12.158051136245305 C76.88936192267458 -11.77715119455538, 77.17363493722257 -11.396251252865454, 77.35273396464063 -11.156274872382312 M77.35273396464063 -11.156274872382312 C77.61675375088289 -10.75066958147476, 77.88077353712517 -10.345064290567208, 78.03465887860425 -10.108655082055241 M77.35273396464063 -11.156274872382312 C77.56517469382263 -10.829908864035467, 77.77761542300462 -10.50354285568862, 78.03465887860425 -10.108655082055241 M78.03465887860425 -10.108655082055241 C78.19448147179381 -9.824873884054712, 78.35430406498337 -9.541092686054183, 78.6480614742735 -9.019496659696287 M78.03465887860425 -10.108655082055241 C78.21216462489673 -9.793475655107054, 78.38967037118921 -9.478296228158865, 78.6480614742735 -9.019496659696287 M78.6480614742735 -9.019496659696287 C78.79240496064318 -8.719764321793809, 78.93674844701286 -8.42003198389133, 79.19042114880834 -7.893275190886684 M78.6480614742735 -9.019496659696287 C78.80385000274592 -8.695998446982804, 78.95963853121833 -8.37250023426932, 79.19042114880834 -7.893275190886684 M79.19042114880834 -7.893275190886684 C79.30523849240033 -7.609674132372133, 79.42005583599233 -7.326073073857581, 79.65950922997033 -6.734618561215508 M79.19042114880834 -7.893275190886684 C79.32533139355704 -7.560044278045276, 79.46024163830572 -7.226813365203868, 79.65950922997033 -6.734618561215508 M79.65950922997033 -6.734618561215508 C79.75636452071713 -6.442905857281051, 79.85321981146393 -6.151193153346594, 80.05339813421489 -5.548287939305138 M79.65950922997033 -6.734618561215508 C79.79515239911909 -6.326082947543499, 79.93079556826785 -5.917547333871491, 80.05339813421489 -5.548287939305138 M80.05339813421489 -5.548287939305138 C80.1244625371416 -5.277288571438533, 80.1955269400683 -5.006289203571928, 80.37046928754556 -4.339158212148133 M80.05339813421489 -5.548287939305138 C80.16689172032433 -5.115487707038472, 80.28038530643376 -4.682687474771807, 80.37046928754556 -4.339158212148133 M80.37046928754556 -4.339158212148133 C80.42959385559017 -4.035566051220938, 80.48871842363478 -3.7319738902937436, 80.60941977658177 -3.1121979531509023 M80.37046928754556 -4.339158212148133 C80.45612879664476 -3.899314737067375, 80.54178830574396 -3.4594712619866175, 80.60941977658177 -3.1121979531509023 M80.60941977658177 -3.1121979531509023 C80.64986797412548 -2.7984897204019443, 80.6903161716692 -2.484781487652987, 80.76926770250937 -1.872449005199798 M80.60941977658177 -3.1121979531509023 C80.66278049307789 -2.6983427732724126, 80.71614120957399 -2.2844875933939233, 80.76926770250937 -1.872449005199798 M80.76926770250937 -1.872449005199798 C80.78583308389965 -1.6144298187110269, 80.80239846528993 -1.3564106322222556, 80.84935621591342 -0.6250057626472757 M80.76926770250937 -1.872449005199798 C80.78576540614435 -1.6154839543782507, 80.80226310977933 -1.3585189035567033, 80.84935621591342 -0.6250057626472757 M80.84935621591342 -0.6250057626472757 C80.84935621591342 -0.33071525119432266, 80.84935621591342 -0.036424739741369616, 80.84935621591342 0.625005762647271 M80.84935621591342 -0.6250057626472757 C80.84935621591342 -0.2286351451382781, 80.84935621591342 0.1677354723707195, 80.84935621591342 0.625005762647271 M80.84935621591342 0.625005762647271 C80.8200775702236 1.0810443025635728, 80.79079892453379 1.5370828424798741, 80.76926770250937 1.8724490051997846 M80.84935621591342 0.625005762647271 C80.8201885617703 1.079315519633061, 80.79102090762717 1.5336252766188512, 80.76926770250937 1.8724490051997846 M80.76926770250937 1.8724490051997846 C80.71830455631931 2.2677091032383228, 80.66734141012925 2.6629692012768613, 80.60941977658177 3.1121979531508885 M80.76926770250937 1.8724490051997846 C80.71666485338685 2.2804263153865807, 80.66406200426432 2.6884036255733768, 80.60941977658177 3.1121979531508885 M80.60941977658177 3.1121979531508885 C80.53297675332364 3.5047167213427377, 80.4565337300655 3.8972354895345873, 80.37046928754556 4.339158212148129 M80.60941977658177 3.1121979531508885 C80.55779047251826 3.377303517659713, 80.50616116845477 3.6424090821685366, 80.37046928754556 4.339158212148129 M80.37046928754556 4.339158212148129 C80.29000166224358 4.646016142313979, 80.2095340369416 4.952874072479828, 80.05339813421489 5.548287939305125 M80.37046928754556 4.339158212148129 C80.30225766288198 4.599278700095471, 80.23404603821841 4.859399188042814, 80.05339813421489 5.548287939305125 M80.05339813421489 5.548287939305125 C79.90436476294772 5.9971527083187945, 79.75533139168054 6.4460174773324646, 79.65950922997033 6.734618561215495 M80.05339813421489 5.548287939305125 C79.97137296612053 5.79533467666958, 79.88934779802618 6.042381414034036, 79.65950922997033 6.734618561215495 M79.65950922997033 6.734618561215495 C79.56409340359913 6.970297497091861, 79.46867757722794 7.205976432968228, 79.19042114880834 7.893275190886679 M79.65950922997033 6.734618561215495 C79.47867396619259 7.181285158958495, 79.29783870241485 7.627951756701495, 79.19042114880834 7.893275190886679 M79.19042114880834 7.893275190886679 C79.0488214271129 8.187310042735954, 78.90722170541746 8.481344894585229, 78.6480614742735 9.019496659696284 M79.19042114880834 7.893275190886679 C78.99534527006236 8.298354427057873, 78.80026939131636 8.703433663229067, 78.6480614742735 9.019496659696284 M78.6480614742735 9.019496659696284 C78.46223572599138 9.349449092668644, 78.27640997770925 9.679401525641005, 78.03465887860425 10.108655082055236 M78.6480614742735 9.019496659696284 C78.46916797654009 9.337140179852913, 78.29027447880668 9.654783700009542, 78.03465887860425 10.108655082055236 M78.03465887860425 10.108655082055236 C77.87094936016135 10.360156864544512, 77.70723984171846 10.611658647033789, 77.35273396464065 11.156274872382301 M78.03465887860425 10.108655082055236 C77.85641084516048 10.382491927723763, 77.6781628117167 10.656328773392291, 77.35273396464065 11.156274872382301 M77.35273396464065 11.156274872382301 C77.16381495805544 11.40940913033092, 76.97489595147023 11.662543388279538, 76.60508890812659 12.158051136245302 M77.35273396464065 11.156274872382301 C77.1560105924388 11.419866269264872, 76.95928722023697 11.683457666147444, 76.60508890812659 12.158051136245302 M76.60508890812659 12.158051136245302 C76.41121518509098 12.385786243050285, 76.21734146205537 12.61352134985527, 75.79479594296866 13.10986736009567 M76.60508890812659 12.158051136245302 C76.28326696051656 12.536081508095625, 75.96144501290652 12.914111879945951, 75.79479594296866 13.10986736009567 M75.79479594296866 13.10986736009567 C75.59611206940639 13.315024771798107, 75.3974281958441 13.520182183500545, 74.92518473676799 14.007812326905684 M75.79479594296866 13.10986736009567 C75.56837836634982 13.343662097183381, 75.34196078973098 13.577456834271091, 74.92518473676799 14.007812326905684 M74.92518473676799 14.007812326905684 C74.56123179078563 14.33834476277961, 74.19727884480326 14.668877198653536, 73.9998287085019 14.848196188198111 M74.92518473676799 14.007812326905684 C74.65222283124704 14.255709107323556, 74.37926092572609 14.50360588774143, 73.9998287085019 14.848196188198111 M73.9998287085019 14.848196188198111 C73.63551451642435 15.138727061572139, 73.27120032434682 15.429257934946166, 73.02253034457871 15.627565626425152 M73.9998287085019 14.848196188198111 C73.61480418020714 15.155243003580168, 73.22977965191241 15.462289818962224, 73.02253034457871 15.627565626425152 M73.02253034457871 15.627565626425152 C72.7894964519041 15.79011998208033, 72.5564625592295 15.95267433773551, 71.9973055736057 16.34271804539089 M73.02253034457871 15.627565626425152 C72.65636685369925 15.882985426700618, 72.29020336281978 16.138405226976083, 71.9973055736057 16.34271804539089 M71.9973055736057 16.34271804539089 C71.65364072805384 16.551049694363225, 71.309975882502 16.759381343335562, 70.92836726407678 16.990714730406093 M71.9973055736057 16.34271804539089 C71.6146395739183 16.57469242319642, 71.23197357423089 16.806666801001953, 70.92836726407678 16.990714730406093 M70.92836726407678 16.990714730406093 C70.69088443462206 17.114609370417607, 70.45340160516734 17.23850401042912, 69.82010791279238 17.56889292409717 M70.92836726407678 16.990714730406093 C70.48727202331084 17.220833834978702, 70.04617678254489 17.450952939551307, 69.82010791279238 17.56889292409717 M69.82010791279238 17.56889292409717 C69.51356802223988 17.704589040461986, 69.2070281316874 17.840285156826805, 68.6770815951478 18.07487676824742 M69.82010791279238 17.56889292409717 C69.38534830531735 17.76134810564083, 68.9505886978423 17.953803287184495, 68.6770815951478 18.07487676824742 M68.6770815951478 18.07487676824742 C68.43177754176276 18.16515092745893, 68.1864734883777 18.255425086670442, 67.50398525146062 18.506587066708033 M68.6770815951478 18.07487676824742 C68.43811544463088 18.162818520616526, 68.19914929411398 18.250760272985627, 67.50398525146062 18.506587066708033 M67.50398525146062 18.506587066708033 C67.24713676889522 18.582818348108248, 66.9902882863298 18.659049629508466, 66.30563938623541 18.86224982926107 M67.50398525146062 18.506587066708033 C67.04544485815828 18.64267944851253, 66.58690446485592 18.77877183031703, 66.30563938623541 18.86224982926107 M66.30563938623541 18.86224982926107 C66.058784031138 18.91859295318032, 65.81192867604058 18.974936077099567, 65.08696825967677 19.140403561325773 M66.30563938623541 18.86224982926107 C65.97527167819734 18.937654102769987, 65.64490397015929 19.013058376278906, 65.08696825967677 19.140403561325773 M65.08696825967677 19.140403561325773 C64.7594700759591 19.1933509278829, 64.43197189224142 19.246298294440027, 63.85297965284788 19.3399052695533 M65.08696825967677 19.140403561325773 C64.63862128026888 19.212888823973685, 64.19027430086098 19.2853740866216, 63.85297965284788 19.3399052695533 M63.85297965284788 19.3399052695533 C63.4432843228004 19.379428085312256, 63.03358899275292 19.418950901071213, 62.6087442896239 19.45993515863156 M63.85297965284788 19.3399052695533 C63.35776687451503 19.387677850698566, 62.86255409618217 19.435450431843833, 62.6087442896239 19.45993515863156 M62.6087442896239 19.45993515863156 C62.198200461212956 19.47310050013361, 61.78765663280201 19.486265841635667, 61.35937500000001 19.5 M62.6087442896239 19.45993515863156 C62.27710219867114 19.470570274986244, 61.94546010771838 19.48120539134093, 61.35937500000001 19.5 M61.35937500000001 19.5 C61.35937500000001 19.5, 61.35937500000001 19.5, 61.359375 19.5 M61.35937500000001 19.5 C61.35937500000001 19.5, 61.359375 19.5, 61.359375 19.5 M61.359375 19.5 C16.8755806079216 19.5, -27.608213784156803 19.5, -61.35937499999999 19.5 M61.359375 19.5 C35.735499733125216 19.5, 10.111624466250433 19.5, -61.35937499999999 19.5 M-61.35937499999999 19.5 C-61.6308857281711 19.491293179411127, -61.9023964563422 19.48258635882225, -62.60874428962389 19.45993515863156 M-61.35937499999999 19.5 C-61.73033573705781 19.488104011193826, -62.101296474115614 19.476208022387656, -62.60874428962389 19.45993515863156 M-62.60874428962389 19.45993515863156 C-62.86565763845769 19.43515103685307, -63.122570987291496 19.410366915074583, -63.85297965284787 19.3399052695533 M-62.60874428962389 19.45993515863156 C-63.0989352916658 19.41264702220551, -63.589126293707714 19.365358885779457, -63.85297965284787 19.3399052695533 M-63.85297965284787 19.3399052695533 C-64.3003773312798 19.26757348252524, -64.74777500971173 19.195241695497177, -65.08696825967675 19.140403561325773 M-63.85297965284787 19.3399052695533 C-64.27407941924284 19.27182512500002, -64.6951791856378 19.203744980446743, -65.08696825967675 19.140403561325773 M-65.08696825967675 19.140403561325773 C-65.42087098798103 19.064192442509253, -65.75477371628533 18.987981323692733, -66.30563938623538 18.862249829261074 M-65.08696825967675 19.140403561325773 C-65.46467193342477 19.054195162539603, -65.84237560717277 18.967986763753434, -66.30563938623538 18.862249829261074 M-66.30563938623538 18.862249829261074 C-66.75937367216241 18.727583874897803, -67.21310795808944 18.59291792053453, -67.50398525146059 18.506587066708043 M-66.30563938623538 18.862249829261074 C-66.62879153321776 18.766339968296936, -66.95194368020015 18.670430107332802, -67.50398525146059 18.506587066708043 M-67.50398525146059 18.506587066708043 C-67.94695521430408 18.343570025612188, -68.38992517714757 18.180552984516336, -68.6770815951478 18.074876768247425 M-67.50398525146059 18.506587066708043 C-67.75565380774047 18.413970711598413, -68.00732236402035 18.321354356488786, -68.6770815951478 18.074876768247425 M-68.6770815951478 18.074876768247425 C-69.02944397916372 17.918896393302322, -69.38180636317963 17.76291601835722, -69.82010791279238 17.568892924097174 M-68.6770815951478 18.074876768247425 C-68.9788190249464 17.941306558798413, -69.28055645474502 17.807736349349405, -69.82010791279238 17.568892924097174 M-69.82010791279238 17.568892924097174 C-70.05251617994166 17.447645679989993, -70.28492444709094 17.326398435882812, -70.92836726407678 16.990714730406097 M-69.82010791279238 17.568892924097174 C-70.06274016734017 17.442311832312974, -70.30537242188794 17.31573074052877, -70.92836726407678 16.990714730406097 M-70.92836726407678 16.990714730406097 C-71.16661551993653 16.846287237601757, -71.40486377579629 16.701859744797414, -71.99730557360569 16.3427180453909 M-70.92836726407678 16.990714730406097 C-71.1990557793892 16.826621761681423, -71.46974429470163 16.66252879295675, -71.99730557360569 16.3427180453909 M-71.99730557360569 16.3427180453909 C-72.36574994448804 16.085707201963118, -72.73419431537042 15.828696358535332, -73.02253034457871 15.627565626425156 M-71.99730557360569 16.3427180453909 C-72.33309595716462 16.108485209951617, -72.66888634072355 15.874252374512334, -73.02253034457871 15.627565626425156 M-73.02253034457871 15.627565626425156 C-73.22262818345732 15.467992924746584, -73.42272602233594 15.308420223068014, -73.99982870850187 14.848196188198125 M-73.02253034457871 15.627565626425156 C-73.32409392610448 15.387076695102284, -73.62565750763025 15.146587763779413, -73.99982870850187 14.848196188198125 M-73.99982870850187 14.848196188198125 C-74.27378086266388 14.599400090164988, -74.54773301682589 14.35060399213185, -74.92518473676797 14.007812326905697 M-73.99982870850187 14.848196188198125 C-74.1962345561256 14.669825594000208, -74.39264040374934 14.491454999802292, -74.92518473676797 14.007812326905697 M-74.92518473676797 14.007812326905697 C-75.16223016693 13.763043458471644, -75.39927559709203 13.518274590037592, -75.79479594296865 13.109867360095677 M-74.92518473676797 14.007812326905697 C-75.25570442998033 13.666523607492467, -75.58622412319268 13.325234888079237, -75.79479594296865 13.109867360095677 M-75.79479594296865 13.109867360095677 C-76.02605604281624 12.838216087742245, -76.25731614266381 12.566564815388812, -76.60508890812658 12.158051136245307 M-75.79479594296865 13.109867360095677 C-75.967805583899 12.906640391331441, -76.14081522482934 12.703413422567207, -76.60508890812658 12.158051136245307 M-76.60508890812658 12.158051136245307 C-76.89807997983951 11.765469792185726, -77.19107105155243 11.372888448126147, -77.35273396464063 11.156274872382316 M-76.60508890812658 12.158051136245307 C-76.77470000908215 11.930787712854002, -76.94431111003773 11.703524289462699, -77.35273396464063 11.156274872382316 M-77.35273396464063 11.156274872382316 C-77.51165255013835 10.91213324944246, -77.67057113563608 10.667991626502607, -78.03465887860425 10.108655082055249 M-77.35273396464063 11.156274872382316 C-77.5925202996394 10.787898670177592, -77.83230663463816 10.419522467972868, -78.03465887860425 10.108655082055249 M-78.03465887860425 10.108655082055249 C-78.21739052572626 9.784196539004395, -78.40012217284826 9.45973799595354, -78.6480614742735 9.019496659696289 M-78.03465887860425 10.108655082055249 C-78.17810451924342 9.853952821654191, -78.3215501598826 9.599250561253134, -78.6480614742735 9.019496659696289 M-78.6480614742735 9.019496659696289 C-78.82417351141457 8.653796246378922, -79.00028554855564 8.288095833061558, -79.19042114880834 7.893275190886686 M-78.6480614742735 9.019496659696289 C-78.80901910235545 8.685264701042593, -78.9699767304374 8.351032742388899, -79.19042114880834 7.893275190886686 M-79.19042114880834 7.893275190886686 C-79.34209515282913 7.518637468537955, -79.49376915684992 7.143999746189224, -79.65950922997033 6.73461856121551 M-79.19042114880834 7.893275190886686 C-79.34848488352667 7.502854710178015, -79.50654861824499 7.112434229469345, -79.65950922997033 6.73461856121551 M-79.65950922997033 6.73461856121551 C-79.75441703451499 6.448771375432096, -79.84932483905966 6.162924189648681, -80.05339813421489 5.5482879393051325 M-79.65950922997033 6.73461856121551 C-79.80501067551276 6.296391389748803, -79.9505121210552 5.858164218282096, -80.05339813421489 5.5482879393051325 M-80.05339813421489 5.5482879393051325 C-80.15221966435294 5.171438615366666, -80.25104119449098 4.794589291428201, -80.37046928754556 4.339158212148136 M-80.05339813421489 5.5482879393051325 C-80.15210867405301 5.171861869483794, -80.25081921389112 4.795435799662457, -80.37046928754556 4.339158212148136 M-80.37046928754556 4.339158212148136 C-80.45967411208365 3.881110291591394, -80.54887893662173 3.4230623710346526, -80.60941977658177 3.112197953150904 M-80.37046928754556 4.339158212148136 C-80.46416497854212 3.858050641472142, -80.55786066953867 3.3769430707961483, -80.60941977658177 3.112197953150904 M-80.60941977658177 3.112197953150904 C-80.67041068771941 2.63916449038512, -80.73140159885703 2.166131027619336, -80.76926770250937 1.872449005199809 M-80.60941977658177 3.112197953150904 C-80.64313797372489 2.850686274520006, -80.67685617086802 2.5891745958891077, -80.76926770250937 1.872449005199809 M-80.76926770250937 1.872449005199809 C-80.79875649642364 1.4131372370589823, -80.82824529033792 0.9538254689181557, -80.84935621591342 0.6250057626472781 M-80.76926770250937 1.872449005199809 C-80.79083676768687 1.5364934048240766, -80.81240583286439 1.2005378044483441, -80.84935621591342 0.6250057626472781 M-80.84935621591342 0.6250057626472781 C-80.84935621591342 0.1851028351905613, -80.84935621591342 -0.2548000922661555, -80.84935621591342 -0.6250057626472687 M-80.84935621591342 0.6250057626472781 C-80.84935621591342 0.17458974770092223, -80.84935621591342 -0.2758262672454337, -80.84935621591342 -0.6250057626472687 M-80.84935621591342 -0.6250057626472687 C-80.819787532698 -1.0855618711389472, -80.79021884948257 -1.5461179796306257, -80.76926770250937 -1.8724490051997822 M-80.84935621591342 -0.6250057626472687 C-80.82082107319036 -1.0694636437115213, -80.7922859304673 -1.5139215247757738, -80.76926770250937 -1.8724490051997822 M-80.76926770250937 -1.8724490051997822 C-80.73533427165923 -2.13562999395966, -80.70140084080907 -2.398810982719538, -80.60941977658177 -3.112197953150895 M-80.76926770250937 -1.8724490051997822 C-80.70741384401069 -2.352175317289582, -80.64555998551202 -2.8319016293793826, -80.60941977658177 -3.112197953150895 M-80.60941977658177 -3.112197953150895 C-80.51666771341196 -3.588460194372417, -80.42391565024214 -4.064722435593938, -80.37046928754556 -4.339158212148126 M-80.60941977658177 -3.112197953150895 C-80.54750955489092 -3.430093856803471, -80.48559933320006 -3.747989760456047, -80.37046928754556 -4.339158212148126 M-80.37046928754556 -4.339158212148126 C-80.30351766111107 -4.594473780761298, -80.23656603467657 -4.849789349374469, -80.05339813421489 -5.548287939305123 M-80.37046928754556 -4.339158212148126 C-80.27271840896746 -4.711924677665178, -80.17496753038937 -5.084691143182231, -80.05339813421489 -5.548287939305123 M-80.05339813421489 -5.548287939305123 C-79.9637132889905 -5.818404403781394, -79.87402844376612 -6.088520868257666, -79.65950922997033 -6.734618561215485 M-80.05339813421489 -5.548287939305123 C-79.95862123859736 -5.833740848257488, -79.86384434297985 -6.119193757209852, -79.65950922997033 -6.734618561215485 M-79.65950922997033 -6.734618561215485 C-79.4920591050818 -7.148223607118079, -79.32460898019328 -7.561828653020672, -79.19042114880834 -7.893275190886676 M-79.65950922997033 -6.734618561215485 C-79.52698778920761 -7.0619490820271675, -79.39446634844488 -7.389279602838851, -79.19042114880834 -7.893275190886676 M-79.19042114880834 -7.893275190886676 C-79.05015937643799 -8.184531762334869, -78.90989760406764 -8.475788333783061, -78.6480614742735 -9.019496659696282 M-79.19042114880834 -7.893275190886676 C-79.06561264573534 -8.152442717991935, -78.94080414266233 -8.411610245097195, -78.6480614742735 -9.019496659696282 M-78.6480614742735 -9.019496659696282 C-78.49585729455329 -9.289750593133967, -78.34365311483309 -9.560004526571653, -78.03465887860425 -10.108655082055243 M-78.6480614742735 -9.019496659696282 C-78.42121239821815 -9.422290165192408, -78.19436332216279 -9.825083670688532, -78.03465887860425 -10.108655082055243 M-78.03465887860425 -10.108655082055243 C-77.86347064778067 -10.371646175076695, -77.69228241695711 -10.634637268098148, -77.35273396464063 -11.156274872382308 M-78.03465887860425 -10.108655082055243 C-77.8137415991293 -10.44804334792453, -77.59282431965434 -10.787431613793817, -77.35273396464063 -11.156274872382308 M-77.35273396464063 -11.156274872382308 C-77.16780098365513 -11.404068219161733, -76.98286800266962 -11.651861565941157, -76.60508890812659 -12.158051136245302 M-77.35273396464063 -11.156274872382308 C-77.06795324463627 -11.53785509313085, -76.78317252463191 -11.919435313879392, -76.60508890812659 -12.158051136245302 M-76.60508890812659 -12.158051136245302 C-76.40442467436145 -12.393762763344201, -76.2037604405963 -12.6294743904431, -75.79479594296866 -13.10986736009567 M-76.60508890812659 -12.158051136245302 C-76.39708100025885 -12.402389060812009, -76.1890730923911 -12.646726985378717, -75.79479594296866 -13.10986736009567 M-75.79479594296866 -13.10986736009567 C-75.45183240571349 -13.464005370141708, -75.10886886845832 -13.818143380187745, -74.92518473676799 -14.007812326905677 M-75.79479594296866 -13.10986736009567 C-75.51867627328919 -13.3949835888862, -75.24255660360973 -13.68009981767673, -74.92518473676799 -14.007812326905677 M-74.92518473676799 -14.007812326905677 C-74.56626213308188 -14.333776339001707, -74.20733952939577 -14.659740351097737, -73.9998287085019 -14.848196188198107 M-74.92518473676799 -14.007812326905677 C-74.5800399432472 -14.32126369635045, -74.2348951497264 -14.634715065795223, -73.9998287085019 -14.848196188198107 M-73.9998287085019 -14.848196188198107 C-73.61068771790009 -15.158525772726385, -73.22154672729827 -15.468855357254663, -73.02253034457871 -15.627565626425149 M-73.9998287085019 -14.848196188198107 C-73.65188098485076 -15.125675238532091, -73.30393326119963 -15.403154288866075, -73.02253034457871 -15.627565626425149 M-73.02253034457871 -15.627565626425149 C-72.75355165486748 -15.8151935164679, -72.48457296515623 -16.00282140651065, -71.99730557360571 -16.342718045390885 M-73.02253034457871 -15.627565626425149 C-72.74021164121086 -15.824498932514864, -72.45789293784303 -16.02143223860458, -71.99730557360571 -16.342718045390885 M-71.99730557360571 -16.342718045390885 C-71.69995443988807 -16.52297405007974, -71.40260330617043 -16.703230054768593, -70.92836726407678 -16.99071473040609 M-71.99730557360571 -16.342718045390885 C-71.70089909777819 -16.52240139291533, -71.40449262195065 -16.702084740439776, -70.92836726407678 -16.99071473040609 M-70.92836726407678 -16.99071473040609 C-70.66673686025138 -17.127207144499533, -70.40510645642598 -17.263699558592975, -69.8201079127924 -17.56889292409717 M-70.92836726407678 -16.99071473040609 C-70.65035222620382 -17.135754997587284, -70.37233718833086 -17.280795264768482, -69.8201079127924 -17.56889292409717 M-69.8201079127924 -17.56889292409717 C-69.49102867208478 -17.714566542169592, -69.16194943137717 -17.860240160242014, -68.67708159514781 -18.07487676824742 M-69.8201079127924 -17.56889292409717 C-69.3881903547745 -17.760090014652558, -68.95627279675661 -17.951287105207946, -68.67708159514781 -18.07487676824742 M-68.67708159514781 -18.07487676824742 C-68.36644024923517 -18.189195655080397, -68.05579890332253 -18.303514541913373, -67.50398525146062 -18.506587066708033 M-68.67708159514781 -18.07487676824742 C-68.35401937300786 -18.193766652349368, -68.03095715086789 -18.312656536451318, -67.50398525146062 -18.506587066708033 M-67.50398525146062 -18.506587066708033 C-67.2070986306422 -18.594701457377266, -66.91021200982378 -18.6828158480465, -66.30563938623541 -18.862249829261067 M-67.50398525146062 -18.506587066708033 C-67.15963260865844 -18.608789123547812, -66.81527996585626 -18.710991180387595, -66.30563938623541 -18.862249829261067 M-66.30563938623541 -18.862249829261067 C-65.9176925839678 -18.950796155289176, -65.5297457817002 -19.03934248131728, -65.08696825967677 -19.140403561325773 M-66.30563938623541 -18.862249829261067 C-65.86387850965501 -18.96307886658142, -65.4221176330746 -19.063907903901768, -65.08696825967677 -19.140403561325773 M-65.08696825967677 -19.140403561325773 C-64.74134180834983 -19.19628176560315, -64.39571535702291 -19.252159969880527, -63.85297965284788 -19.3399052695533 M-65.08696825967677 -19.140403561325773 C-64.8380804229326 -19.180641816616568, -64.58919258618846 -19.220880071907363, -63.85297965284788 -19.3399052695533 M-63.85297965284788 -19.3399052695533 C-63.5078798381513 -19.373196633633828, -63.162780023454715 -19.406487997714358, -62.6087442896239 -19.45993515863156 M-63.85297965284788 -19.3399052695533 C-63.53787856888633 -19.37030269215857, -63.22277748492478 -19.400700114763843, -62.6087442896239 -19.45993515863156 M-62.6087442896239 -19.45993515863156 C-62.28602339977934 -19.470284189430767, -61.96330250993478 -19.48063322022998, -61.35937500000001 -19.5 M-62.6087442896239 -19.45993515863156 C-62.24710868509888 -19.471532108587674, -61.88547308057386 -19.48312905854379, -61.35937500000001 -19.5 M-61.35937500000001 -19.5 C-61.35937500000001 -19.5, -61.359375 -19.5, -61.359375 -19.5 M-61.35937500000001 -19.5 C-61.35937500000001 -19.5, -61.359375 -19.5, -61.359375 -19.5" stroke="#9370DB" stroke-width="1.3" fill="none" stroke-dasharray="0 0" style=""/></g><g class="label" style="" transform="translate(-68.484375, -12)"><rect/><foreignObject width="136.96875" height="24"><div xmlns="http://www.w3.org/1999/xhtml" style="display: table-cell; white-space: nowrap; line-height: 1.5; max-width: 200px; text-align: center;"><span class="nodeLabel"><p>getSleepBehavior()</p></span></div></foreignObject></g></g><g class="node default" id="my-svg-flowchart-CHECK_SCHED-1" data-look="classic" transform="translate(1103, 729.1640625)"><polygon points="121.7109375,0 243.421875,-121.7109375 121.7109375,-243.421875 0,-121.7109375" class="label-container" transform="translate(-121.2109375, 121.7109375)"/><g class="label" style="" transform="translate(-82.7109375, -24)"><rect/><foreignObject width="165.421875" height="48"><div xmlns="http://www.w3.org/1999/xhtml" style="display: table-cell; white-space: nowrap; line-height: 1.5; max-width: 200px; text-align: center;"><span class="nodeLabel"><p>timeSchedules<br />exists and non-empty ?</p></span></div></foreignObject></g></g><g class="node default" id="my-svg-flowchart-NULL_RETURN-3" data-look="classic" transform="translate(1275.7109375, 2121.296875)"><rect class="basic label-container" style="" x="-122.9296875" y="-27" width="245.859375" height="54"/><g class="label" style="" transform="translate(-92.9296875, -12)"><rect/><foreignObject width="185.859375" height="24"><div xmlns="http://www.w3.org/1999/xhtml" style="display: table-cell; white-space: nowrap; line-height: 1.5; max-width: 200px; text-align: center;"><span class="nodeLabel"><p>return null (always awake)</p></span></div></foreignObject></g></g><g class="node default" id="my-svg-flowchart-GET_TZ-5" data-look="classic" transform="translate(983.74609375, 963.875)"><rect class="basic label-container" style="" x="-77.578125" y="-39" width="155.15625" height="78"/><g class="label" style="" transform="translate(-47.578125, -24)"><rect/><foreignObject width="95.15625" height="48"><div xmlns="http://www.w3.org/1999/xhtml" style="display: table-cell; white-space: nowrap; line-height: 1.5; max-width: 200px; text-align: center;"><span class="nodeLabel"><p>Get timezone<br />(config.yml)</p></span></div></foreignObject></g></g><g class="node default" id="my-svg-flowchart-COMPUTE_NOW-7" data-look="classic" transform="translate(983.74609375, 1139.875)"><rect class="basic label-container" style="" x="-130" y="-87" width="260" height="174"/><g class="label" style="" transform="translate(-100, -72)"><rect/><foreignObject width="200" height="144"><div xmlns="http://www.w3.org/1999/xhtml" style="display: table; white-space: break-spaces; line-height: 1.5; max-width: 200px; text-align: center; width: 200px;"><span class="nodeLabel"><p>now = new Date()<br />localNow = toLocaleString('en-US', {timeZone: tz})<br />currentMinutes = HH*60 + MM</p></span></div></foreignObject></g></g><g class="node default" id="my-svg-flowchart-FOR_EACH-9" data-look="classic" transform="translate(983.74609375, 1315.875)"><rect class="basic label-container" style="" x="-90.921875" y="-39" width="181.84375" height="78"/><g class="label" style="" transform="translate(-60.921875, -24)"><rect/><foreignObject width="121.84375" height="48"><div xmlns="http://www.w3.org/1999/xhtml" style="display: table-cell; white-space: nowrap; line-height: 1.5; max-width: 200px; text-align: center;"><span class="nodeLabel"><p>For each entry<br />in timeSchedules</p></span></div></foreignObject></g></g><g class="node default" id="my-svg-flowchart-PARSE-11" data-look="classic" transform="translate(983.74609375, 1491.875)"><rect class="basic label-container" style="" x="-130" y="-63" width="260" height="126"/><g class="label" style="" transform="translate(-100, -48)"><rect/><foreignObject width="200" height="96"><div xmlns="http://www.w3.org/1999/xhtml" style="display: table; white-space: break-spaces; line-height: 1.5; max-width: 200px; text-align: center; width: 200px;"><span class="nodeLabel"><p>startMinutes = parseTime(start)<br />endMinutes = parseTime(end)</p></span></div></foreignObject></g></g><g class="node default" id="my-svg-flowchart-IS_IN_WINDOW-13" data-look="classic" transform="translate(1070.1015625, 1742.5859375)"><polygon points="137.7109375,0 275.421875,-137.7109375 137.7109375,-275.421875 0,-137.7109375" class="label-container" transform="translate(-137.2109375, 137.7109375)"/><g class="label" style="" transform="translate(-98.7109375, -24)"><rect/><foreignObject width="197.421875" height="48"><div xmlns="http://www.w3.org/1999/xhtml" style="display: table-cell; white-space: nowrap; line-height: 1.5; max-width: 200px; text-align: center;"><span class="nodeLabel"><p>isInWindow(currentMinutes,<br />startMinutes, endMinutes) ?</p></span></div></foreignObject></g></g><g class="node default" id="my-svg-flowchart-RETURN_BEHAVIOR-15" data-look="classic" transform="translate(483, 2121.296875)"><rect class="basic label-container" style="" x="-103.2265625" y="-39" width="206.453125" height="78"/><g class="label" style="" transform="translate(-73.2265625, -24)"><rect/><foreignObject width="146.453125" height="48"><div xmlns="http://www.w3.org/1999/xhtml" style="display: table-cell; white-space: nowrap; line-height: 1.5; max-width: 200px; text-align: center;"><span class="nodeLabel"><p>return entry.behavior<br />sleep / slow / short</p></span></div></foreignObject></g></g><g class="node default" id="my-svg-flowchart-NEXT_ENTRY-17" data-look="classic" transform="translate(983.74609375, 1981.296875)"><rect class="basic label-container" style="" x="-89.1328125" y="-27" width="178.265625" height="54"/><g class="label" style="" transform="translate(-59.1328125, -12)"><rect/><foreignObject width="118.265625" height="24"><div xmlns="http://www.w3.org/1999/xhtml" style="display: table-cell; white-space: nowrap; line-height: 1.5; max-width: 200px; text-align: center;"><span class="nodeLabel"><p>Next entry (loop)</p></span></div></foreignObject></g></g><g class="node default" id="my-svg-flowchart-NULL_RETURN2-21" data-look="classic" transform="translate(983.74609375, 2121.296875)"><rect class="basic label-container" style="" x="-65.578125" y="-27" width="131.15625" height="54"/><g class="label" style="" transform="translate(-35.578125, -12)"><rect/><foreignObject width="71.15625" height="24"><div xmlns="http://www.w3.org/1999/xhtml" style="display: table-cell; white-space: nowrap; line-height: 1.5; max-width: 200px; text-align: center;"><span class="nodeLabel"><p>return null</p></span></div></foreignObject></g></g><g class="node default" id="my-svg-flowchart-B1-35" data-look="classic" transform="translate(173, 2286.296875)"><rect class="basic label-container" style="" x="-130" y="-51" width="260" height="102"/><g class="label" style="" transform="translate(-100, -36)"><rect/><foreignObject width="200" height="72"><div xmlns="http://www.w3.org/1999/xhtml" style="display: table; white-space: break-spaces; line-height: 1.5; max-width: 200px; text-align: center; width: 200px;"><span class="nodeLabel"><p>sleep: ignore except mentions/DM, status invisible</p></span></div></foreignObject></g></g><g class="node default" id="my-svg-flowchart-B2-36" data-look="classic" transform="translate(483, 2286.296875)"><rect class="basic label-container" style="" x="-130" y="-39" width="260" height="78"/><g class="label" style="" transform="translate(-100, -24)"><rect/><foreignObject width="200" height="48"><div xmlns="http://www.w3.org/1999/xhtml" style="display: table; white-space: break-spaces; line-height: 1.5; max-width: 200px; text-align: center; width: 200px;"><span class="nodeLabel"><p>slow: delay x3-5, reactions capped at 2%</p></span></div></foreignObject></g></g><g class="node default" id="my-svg-flowchart-B3-37" data-look="classic" transform="translate(793, 2286.296875)"><rect class="basic label-container" style="" x="-130" y="-39" width="260" height="78"/><g class="label" style="" transform="translate(-100, -24)"><rect/><foreignObject width="200" height="48"><div xmlns="http://www.w3.org/1999/xhtml" style="display: table; white-space: break-spaces; line-height: 1.5; max-width: 200px; text-align: center; width: 200px;"><span class="nodeLabel"><p>short: ignore chance +30%, reactions capped at 2%</p></span></div></foreignObject></g></g><g class="node default" id="my-svg-flowchart-B4-38" data-look="classic" transform="translate(1103, 2286.296875)"><rect class="basic label-container" style="" x="-130" y="-39" width="260" height="78"/><g class="label" style="" transform="translate(-100, -24)"><rect/><foreignObject width="200" height="48"><div xmlns="http://www.w3.org/1999/xhtml" style="display: table; white-space: break-spaces; line-height: 1.5; max-width: 200px; text-align: center; width: 200px;"><span class="nodeLabel"><p>null: normal behavior, all features active</p></span></div></foreignObject></g></g></g></g></g><defs><filter id="my-svg-drop-shadow" height="130%" width="130%"><feDropShadow dx="4" dy="4" stdDeviation="0" flood-opacity="0.06" flood-color="#000000"/></filter></defs><defs><filter id="my-svg-drop-shadow-small" height="150%" width="150%"><feDropShadow dx="2" dy="2" stdDeviation="0" flood-opacity="0.06" flood-color="#000000"/></filter></defs></svg>